<svg width="128" height="128" viewBox="0 0 24 24" xmlns="http://www.w3.org/2000/svg" preserveAspectRatio="xMidYMid meet"><g><path id="svg_1" d="m0.22811,8.42244l0,-2.67626c0,-0.13022 0.00485,-0.25928 0.01372,-0.38725l-0.01372,3.06353l0,0l0,-0.00002zm22.13572,-6.35785c0.87539,0.97663 1.40807,2.26682 1.40807,3.68159l0,12.50765c0,3.04754 -2.47054,5.51808 -5.51808,5.51808l-12.50765,0c-1.52088,0 -2.89798,-0.61536 -3.89611,-1.61059l20.51375,-20.09673l0,0l0.00002,0z" fill="rgb(88, 182, 216)" fill-rule="evenodd" stroke="null"/><path id="svg_2" d="m1.88786,22.19821c-1.02398,-1.00178 -1.65975,-2.39874 -1.65975,-3.94439l0,-12.50765c0,-3.04754 2.47054,-5.51808 5.51808,-5.51808l12.50765,0c1.66068,0 3.14985,0.7337 4.16147,1.89447l-20.52744,20.07565l-0.00001,0z" fill="rgb(134, 193, 85)" fill-rule="evenodd" stroke="null"/><path id="svg_3" d="m19.6569,9.39041l-2.886,0c-0.94354,0.19393 -0.81466,1.06567 -0.81466,1.06567l0,3.24521c0.10339,0.93088 1.00853,0.79334 1.00853,0.79334l4.57694,0l0,1.90834l-5.01086,0c-1.95265,-0.10849 -2.36748,-1.44849 -2.36748,-1.44849c-0.19389,-0.43958 -0.1609,-0.87369 -0.1609,-0.87369l0,-3.56376c0.01292,-2.52116 1.7239,-2.874 1.7239,-2.874c0.29728,-0.10345 1.24123,-0.13795 1.24123,-0.13795l4.62009,0l-1.93077,1.88535l0,0l-0.00002,-0.00002zm-8.4846,0.36788l-2.29919,6.5757l-2.09227,0l-2.43714,-6.5757l-0.02299,6.55271l-1.90834,0l0,-8.80594l3.10391,0l2.25321,6.02391l2.23022,-6.02391l3.17291,0l0,8.85193l-2.00031,0l0,-6.59869l0,0l-0.00001,-0.00001z" fill="rgb(255, 255, 255)" fill-rule="evenodd" stroke="null"/></svg>