<svg xmlns="http://www.w3.org/2000/svg" viewBox="0 0 32 32" width="200" height="200"><path fill="#86c156" d="M2.5-.5h26l1 2-7 8c-2.333.333-3.667 1.667-4 4h-1v-4c-1.788-.285-3.455.048-5 1a66.678 66.678 0 01-2.5 6c-1.164-2.149-2.33-4.315-3.5-6.5a8.434 8.434 0 00-4-.5c-.59 4.47.077 8.47 2 12l2-6c.255 2.467 1.255 4.467 3 6a45.429 45.429 0 01-8 8l-2-1v-26a6.54 6.54 0 003-3z" opacity=".965"/><path fill="#f1f8f1" d="M17.5 13.5v8h-3v-4a4.932 4.932 0 00-.5-3 10.123 10.123 0 00-1.5 4c-.356 1.69-1.356 2.69-3 3-1.745-1.533-2.745-3.533-3-6 .13-.876-.202-1.543-1-2a16.87 16.87 0 00-1 8c-1.923-3.53-2.59-7.53-2-12a8.434 8.434 0 014 .5c1.17 2.185 2.336 4.351 3.5 6.5.93-1.96 1.764-3.96 2.5-6 1.545-.952 3.212-1.285 5-1v4z"/><path fill="#ecf6f9" d="M22.5 9.5a18.436 18.436 0 016 .5c-1.821 2.137-4.154 2.97-7 2.5v7a13.117 13.117 0 017 1c-2.946 1.155-5.946 1.321-9 .5-.935-2.38-1.268-4.88-1-7.5.333-2.333 1.667-3.667 4-4z"/><path fill="#d0e6bd" d="M6.5 15.5l-2 6a16.87 16.87 0 011-8c.798.457 1.13 1.124 1 2z"/><path fill="#97cb84" d="M14.5 17.5l-2 1a10.123 10.123 0 011.5-4c.483.948.65 1.948.5 3z"/><path fill="#5ab6d8" d="M29.5 1.5l2 1v26a6.541 6.541 0 00-3 3h-26l-1-2a45.429 45.429 0 008-8c1.644-.31 2.644-1.31 3-3l2-1v4h3v-8h1c-.268 2.62.065 5.12 1 7.5 3.054.821 6.054.655 9-.5a13.117 13.117 0 00-7-1v-7c2.846.47 5.179-.363 7-2.5a18.436 18.436 0 00-6-.5l7-8z" opacity=".989"/></svg>