<svg width="3508" height="3508" viewBox="0 0 3508 3508" xmlns="http://www.w3.org/2000/svg">
   <ellipse fill="#fff" cx="1754" cy="1754" id="svg_2" rx="1591.5" ry="1591.5" stroke="#000"/><path fill-rule="evenodd" fill="rgb(121, 169, 171)" d="m1704.5,163.5c128.561,-1.366 245.997,4.653 352,28c569.828,125.503 965.014,468.439 1169,959c42.424,102.025 71.263,207.885 97,333c11.149,50.945 15.16,96.565 19,160c10.982,218.136 -6.085,292.247 -24,409c-25.012,115.237 -55.299,221.719 -97,320c-185.972,438.294 -536.487,757.796 -1012,907c-81.681,25.629 -167.788,37.467 -260,54c-44.995,3.666 -90.005,7.334 -135,11c-19.665,0 -39.335,0 -59,0c-51.722,0.006 -103.408,0.714 -149,-7c-58.777,-4.526 -104.577,-9.842 -155,-21c-116.125,-25.697 -222.962,-57.75 -321,-100c-403.867,-163.647 -764.481,-545.556 -897,-1000c-23.452,-74.56 -38.173,-154.605 -54,-239c-3.666,-38.663 -7.334,-77.337 -11,-116c-5.893,-55.551 -6.726,-138.889 -1,-200c2.899,-46.796 6.241,-82.657 12,-130c17.24,-102.379 35.779,-205.295 71,-296c29.372,-75.641 55.96,-152.994 95,-220c39.857,-68.409 78.204,-135.225 123,-198c177.702,-249.021 424.928,-435.197 732,-555c101.467,-39.587 211.414,-60.932 331,-84c43.329,-4.333 86.671,-8.667 130,-13c14.665,-0.667 29.335,-1.333 44,-2zm-3,101c-13.332,0.667 -26.668,1.333 -40,2c-41.662,4.333 -83.338,8.667 -125,13c-105.719,19.82 -204.854,39.872 -295,75c-439.865,171.409 -744.075,479.819 -903,932c-28.24,80.349 -42.782,166.33 -60,258c-33.529,180.121 -6.894,450.975 41,610c133.218,460.649 445.63,789.793 835,963c96.531,47.284 197.386,72.591 310,99c43.495,10.2 87.5,10.999 134,19c45.337,7.801 99.596,10.969 148,8c22.998,0 46.002,0 69,0c39.996,-3.333 80.004,-6.667 120,-10c88.466,-15.791 170.692,-27.419 249,-52c433.876,-136.195 762.122,-432.212 935,-829c41.938,-96.256 72.856,-200.451 98,-314c61.174,-289.49 11.855,-639.633 -90,-861c-173.762,-408.573 -483.589,-694.998 -918,-843c-74.653,-25.434 -154.235,-38.282 -238,-55c-81.815,-16.329 -174.084,-15 -270,-15zm11,50c127.947,-1.517 244.726,6.268 348,32c503.31,125.405 837.965,420.821 1025,862c34.753,81.977 59.694,171.781 81,268c8.65,39.067 9.786,77.051 17,119c8.055,46.843 9.531,134.867 8,193c-2,37.33 -4,74.67 -6,112c-9.17,53.073 -12.56,106.001 -25,156c-21.829,87.736 -45.394,171.154 -78,248c-171.941,405.239 -483.858,689.657 -924,827c-74.138,23.134 -153.389,33.021 -237,48c-40.663,3 -81.337,6 -122,9c-27.331,-0.333 -54.669,-0.667 -82,-1c-39.126,-1.64 -76.219,-0.931 -111,-7c-54.513,-9.512 -105.671,-11.463 -156,-24c-99.118,-24.69 -190.353,-53.929 -275,-91c-384.635,-172.043 -663.585,-477.894 -797,-905c-51.036,-163.384 -81.176,-410.341 -44,-626c18.74,-93.914 34.454,-182.798 66,-264c164.506,-423.447 445.744,-707.394 869,-872c89.968,-34.989 189.176,-52.23 295,-72c49.328,-4 98.672,-8 148,-12zm-29,88c-41.823,2.946 -53.199,8.468 -66,10c7.666,62.994 15.334,126.006 23,189c56.192,0.432 151.675,-8.879 132,-76c-4.129,-26.047 -42,-35 -42,-35c65.855,-26.794 33.026,-98.21 -47,-88zm186,2c-10.999,23.664 -22.001,47.336 -33,71c-15.332,39.329 -30.668,78.671 -46,118c11.332,0.333 22.668,0.667 34,1c6.999,-17.998 14.001,-36.002 21,-54c22.331,2 44.669,4 67,6c4,19.331 8,38.669 12,58c11.332,1.667 22.668,3.333 34,5c-8.854,-70.927 -26.254,-130.244 -42,-201c-15.665,-1.333 -31.335,-2.667 -47,-4zm-207,81c-1,-18.998 -2,-38.002 -3,-57c28.292,-2.801 65.159,-7.774 69,22c3.795,29.419 -38.484,35.428 -66,35zm360,-60c-12.332,62.994 -24.668,126.006 -37,189c0.667,0 1.333,0 2,0c9.332,2 18.668,4 28,6c0,-0.667 0,-1.333 0,-2c8.666,-37.996 17.334,-76.004 26,-114c2,-11.665 4,-23.335 6,-35c17.332,57.994 34.668,116.006 52,174c10.666,3.333 21.334,6.667 32,10c20.665,-60.661 41.335,-121.339 62,-182c0,-0.333 0,-0.667 0,-1c-11.332,-3.333 -22.668,-6.667 -34,-10c-14.332,47.662 -28.668,95.338 -43,143c-6.481,-64.767 -36.104,-117.468 -53,-170c-13.665,-2.666 -27.335,-5.334 -41,-8zm-134,8c6.999,29.664 14.001,59.336 21,89c-18.665,-1.667 -37.335,-3.333 -56,-5c11.014,-27.668 28.193,-53.509 35,-84zm-223,75c33.34,-3.292 69.329,-2.996 73,29c3.358,30.658 -46.376,44.286 -67,37c-2,-21.998 -4,-44.002 -6,-66zm608,7c-15.829,1.486 -30.278,5.258 -43,13c-34.07,20.733 -60.025,86.83 -32,133c16.873,27.797 46.86,43.272 80,55c5.709,2.02 25.946,12.956 34,9c15.332,-27.664 30.668,-55.336 46,-83c-10.464,-10.138 -50.375,-30.371 -66,-34c-3,7.333 -6,14.667 -9,22c11.332,5.333 22.668,10.667 34,16c-8.666,15.998 -17.334,32.002 -26,48c-25.442,-11.66 -47.313,-17.088 -61,-40c-22.194,-37.151 3.361,-87.95 29,-103c43.917,-25.78 90.647,13.729 114,32c0.667,0 1.333,0 2,0c6,-5.666 12,-11.334 18,-17c-3.666,-4 -7.334,-8 -11,-12c-36.799,-23.68 -55.648,-38.802 -109,-39zm-930,35c-19.998,1.667 -40.002,3.333 -60,5c-39.829,7.787 -80.392,14.686 -117,26c-51.378,15.879 -106.556,37.114 -151,63c-10.332,6.999 -19.993,10.555 -31,21c-16.998,3 -33.529,3.095 -51,9c-33.62,10.251 -69.387,22.312 -98,39c-164.382,95.875 -258.033,188.591 -329,396c-52.672,149.421 -60.395,390.374 5,528c12.358,28.526 56.618,115.874 83,107c11.441,-5.089 16.795,-12.567 14,-29c2,1.333 4,2.667 6,4c-1.7,81.659 -2.738,166.63 11,239c8.506,44.808 19.453,93.712 29,135c-38.33,0 -76.67,0 -115,0c-7.989,1.932 -12.844,2.206 -16,9c-5.25,9.55 4.143,26.455 8,35c16.522,34.316 25.281,70.055 43,99c36.663,2.295 80.016,-25.632 117,-35c0.333,0.667 0.667,1.333 1,2c0.211,3.977 0.612,2.728 -1,6c-52.661,32.33 -105.339,64.67 -158,97c-6.268,5.551 -6.153,7.18 -3,11c34.419,42.322 68.344,66.686 101,98c11.698,11.217 33.782,41.419 46,32c30.554,-25.891 62.006,-68.381 86,-94c0.333,0 0.667,0 1,0c7.333,12.332 14.667,24.668 22,37c-5.052,8.697 -4.996,13.951 -3,24c8.518,8.696 13.947,9.042 25,10c11.666,16.998 23.334,34.002 35,51c24.801,33.729 54.125,63.577 80,96c25.917,32.475 61.964,62.528 95,88c85.292,65.763 173.001,130.759 277,176c90.571,39.4 186.103,62.86 296,86c121.255,25.532 304.762,14.087 414,-13c34.046,-8.442 68.645,-20.124 101,-28c109.478,-26.651 230.244,-95.356 317,-157c73.554,-52.264 136.322,-110.314 199,-173c27.669,-27.673 59.017,-54.972 82,-87c75.108,-104.665 123.043,-238.782 167,-373c17.136,-52.323 21.79,-109.863 33,-168c2,-21.665 4,-43.335 6,-65c7.366,-40.497 -0.713,-86.893 1,-128c35.345,-17.382 66.37,-40.712 92,-67c5.791,-7.252 22.023,-19.345 17,-33c-5.804,-13.437 -24.555,-8.269 -36,-3c-35.158,16.186 -59.346,29.441 -77,55c0.132,-58.658 -20.256,-109.325 -25,-162c25.233,-17.384 12.973,-43.612 -12,-42c-3.504,-26.101 -15.062,-53.315 -24,-76c-20.823,-52.85 -37.692,-105.339 -65,-152c-15.998,-28.33 -32.002,-56.67 -48,-85c13.106,-15.66 19.079,-31.093 25,-55c2.763,3.06 0.419,2.705 4,1c6,-4 12,-8 18,-12c-15.998,-22.664 -32.002,-45.336 -48,-68c16.665,-12.665 33.335,-25.335 50,-38c15.332,20.998 30.668,42.002 46,63c0.667,-0.667 1.333,-1.333 2,-2c6,-4 12,-8 18,-12c-0.667,-0.667 -1.333,-1.333 -2,-2c-5.943,-13.691 -42.311,-57.109 -45,-63c13.999,-10.332 30.001,-22.668 44,-33c16.665,23.664 33.335,47.336 50,71c7.333,-4.333 14.667,-8.667 22,-13c0,-0.333 0,-0.667 0,-1c-24.718,-34.313 -48.254,-70.271 -77,-102c-49.328,40.663 -98.672,81.337 -148,122c0,0.667 0,1.333 0,2c15.332,19.665 30.668,39.335 46,59c-20.161,0.257 -40.292,11.902 -51.484,16.329c-12.848,-13.661 -23.184,-26.997 -33.516,-40.329c-33.313,-43.324 -71.539,-86.829 -114,-121c-34.179,-27.506 -65.526,-59.572 -102,-85c-144.401,-100.67 -281.419,-165.87 -487,-203c-61.259,-13.312 -131.237,-16.11 -203,-15c-30.997,1.667 -62.003,3.333 -93,5c-18.652,-12.368 -39.335,-19.334 -59,-29c-73.355,-31.222 -149.492,-58.902 -252,-59zm1479,1549c-3.661,34.817 0.073,86.222 -4.59,121.964c-7.464,21.684 -14.91,28.472 -17.41,39.036c-42.513,0.433 -85.095,4.996 -132,5c-13.999,0 -28.001,0 -42,0c-35.663,-2.667 -71.337,-5.333 -107,-8c-88.623,-15.689 -161.691,-25.687 -232,-56c-37.572,-16.199 -78.96,-34.313 -107,-66c13.665,8.666 27.335,17.334 41,26c28.846,16.964 64.475,31.759 98,42c-34.997,-35.33 -70.003,-70.67 -105,-106c-67.475,-84.299 -132.499,-174.182 -168,-290c-21.366,-69.703 -23.626,-146.596 -37,-227c-1.667,-37.663 -3.333,-75.337 -5,-113c-0.333,-31.663 -0.667,-63.337 -1,-95c-1.377,-63.769 -0.578,-131.07 -12,-188c-12.164,-60.628 -23.61,-126.936 -46,-181c-71.951,-171.751 -225.849,-321.81 -400,-381c-44.149,-17.587 -89.678,-29.025 -142,-39c-29.763,-5.674 -74.122,-0.807 -102,4c-90.08,9.432 -156.007,30.765 -228,67c-19.571,11.521 -48.478,26.301 -65,40c-18.331,2.666 -36.669,5.334 -55,8c-36.011,9.069 -68.441,22.139 -100,36c-36.101,15.856 -66.349,42.218 -96,65c-105.941,81.4 -179.737,188.84 -221,323c-38.849,111.457 -51.39,291.012 -22,424c5.277,41.49 24.716,97.391 47,132c-12.971,-31.982 -28.33,-76.25 -38,-113c-1.883,-11.769 -4.747,-16.401 -4,-41c0.333,0 0.667,0 1,0c5.408,27.757 20.148,55.902 39.589,91.16c25.039,39.743 60.46,74.151 100.411,92.84c-42.297,-50.168 -64.896,-99.646 -96,-161c-3.113,-3.887 -22.249,-46.268 -19,-68c12.191,59.89 75.67,154.783 134,198c-6.956,-10.696 -17.286,-22.021 -18,-39c1,0 2,1 3,1c27.47,40.459 70.01,29.962 117,29c-11.605,-18.801 -22.467,-39.553 -31,-66c-9.067,-2.057 -17.226,-5.542 -22,-12c5.999,0.333 12.001,3.209 18,1c0,-0.333 0,-0.667 0,-1c-12.074,-34.632 -17.948,-46.604 -25,-97c1,0.667 2,0.333 3,1c6.822,23.071 24.809,55.052 47,89c1.333,-1.333 2.667,-2.667 4,-4c1.333,-0.667 2.667,-1.333 4,-2c-1.481,-25.023 -5.988,-87.813 -4,-138c2.333,-31.663 4.667,-63.337 7,-95c11.269,-66.141 19.051,-129.649 34,-190c8.93,-36.053 15.666,-97.641 37,-125c0,1.667 0,3.333 0,5c-12.398,31.232 -26.865,107.743 -21,161c17.586,100.351 50.915,224.798 103,296c-11.718,-86.846 -24.933,-177.937 -26,-277c-0.387,-35.932 -5.151,-95.413 15,-112c-8.095,281.478 35.101,533.199 112,741c27.437,76.272 45.918,127.615 79,184c40.619,69.23 94.9,131.262 144,193c47.217,55.923 112.958,119.037 170,164c40.005,31.534 78.341,54.73 117,99c30.023,37.181 60.052,75.836 86,117c14.332,23.998 28.668,48.002 43,72c-24.495,-102.79 -46.781,-176.371 -92,-254c-15.332,-23.664 -30.668,-47.336 -46,-71c-10.928,-14.951 -22.52,-28.192 -34,-47c1,0.667 2,1.333 3,2c8.666,9.999 17.334,20.001 26,30c16.998,23.664 34.002,47.336 51,71c64.431,111.679 121.07,248.503 105,417c0.333,0 0.667,0 1,0c3.333,-12.665 6.667,-25.335 10,-38c2.333,-18.998 4.667,-38.002 7,-57c6.669,-62.633 -3.247,-131.036 -16,-177c-47.785,-174.07 -144.289,-253.163 -237,-375c-78.864,-111.655 -138.458,-237.578 -194,-373c-38.58,-94.067 -63.407,-192.87 -89,-303c-4.454,-19.168 -20.025,-87.776 -14,-123c13.855,128.497 41.243,196.881 62,280c0.333,0 0.667,0 1,0c1.043,-46.703 20.068,-87.138 29,-125c-0.333,-29.997 -0.667,-60.003 -1,-90c-0.076,-59.634 4.509,-101.975 -3,-147c-5.192,-53.139 -7.542,-98.806 -18,-146c-32.914,-148.539 -77.751,-293.665 -157,-397c-9.332,-8.999 -18.668,-18.001 -28,-27c1.667,-0.333 3.333,-0.667 5,-1c46.297,26.182 76.373,80.46 96,125c37.846,85.882 67.251,178.08 92,278c6.666,44.329 13.334,88.671 20,133c5.754,49.078 5.004,100.653 5,153c-0.001,20.167 -4.272,54.776 4,69c1.333,0.667 2.667,1.333 4,2c0.333,0 0.667,0 1,0c22.998,-49.328 46.002,-98.672 69,-148c11.666,-7.666 23.334,-15.334 35,-23c-1.422,-7.107 -3.566,-12.788 -2,-21c3,-2.333 6,-4.667 9,-7c-19.907,-30.642 -52.181,-53.253 -84,-72c-15.642,-9.215 -35.692,-14.5 -47,-28c0.667,-0.667 1.333,-1.333 2,-2c42.766,16.477 102.042,50.069 127,87c1,-0.667 2,-1.333 3,-2c10.235,-14.75 18.438,-28.927 23,-49c22.365,-98.398 -67.994,-203.101 -119,-234c-22.582,-13.68 -48.32,-21.895 -75,-32c0.333,-0.667 0.667,-1.333 1,-2c65.789,4.086 154.68,72.179 173,118c0.333,0 0.667,0 1,0c0.333,-22.664 0.667,-45.336 1,-68c-11.948,-69.935 -40.764,-108.541 -77,-151c0.333,-0.333 0.667,-0.667 1,-1c22.334,16.982 42.307,38.455 57,63c5.666,11.666 11.334,23.334 17,35c0.333,0 0.667,0 1,0c20.291,-52.279 90.291,-111.22 134,-130c13.392,-5.754 34.792,-18.468 67,-15c-63.564,2.763 -169.882,92.802 -188,140c-8.995,23.431 -2.962,47.814 2,73c6.056,30.74 -14.487,65.422 0,81c42.974,-4.194 88.667,-50.021 120,-89c9.666,-10.666 19.334,-21.334 29,-32c-20.913,39.201 -83.948,131.223 -145,131c6.05,31.445 21.174,66.158 15,114c-3.25,20.029 -9.696,37.024 -13,54c1.667,0 3.333,0 5,0c51.97,-15.272 83.662,-48.019 112,-90c7.385,-10.94 21.644,-35.505 27,-52c0.667,1 1.333,2 2,3c5.103,13.179 -6.584,32.328 -11,41c-20.533,40.322 -43.996,55.324 -73,85c10.461,0.656 17.246,5.586 19,15c32.997,-2.333 66.003,-4.667 99,-7c50.798,4.385 122.965,16.829 152,16c3.752,5.118 7.864,10.098 10,17c5.612,18.133 14.033,138.029 9,157c-29.238,-6.624 -56.361,-17.972 -81,-26c0.333,0.667 0.667,1.333 1,2c11.999,9.999 24.001,20.001 36,30c27.664,25.997 55.336,52.003 83,78c11.666,12.665 23.334,25.335 35,38c-3.666,-25.664 -7.334,-51.336 -11,-77c-17.93,-93.087 -16.709,-199.638 -39,-287c-15.146,-59.36 -36.646,-118.787 -68,-163c-11.666,-12.665 -23.334,-25.335 -35,-38c0.333,-0.333 0.667,-0.667 1,-1c41.866,23.524 62.28,73.094 81,120c26.251,65.777 37.466,142.441 51,224c7.514,81.474 14.049,150.988 30,228c4.118,16.815 16.353,23.142 24,37c0.667,6.333 1.333,12.667 2,19c18.998,43.329 38.002,86.671 57,130c15.113,34.252 37.351,64.831 56,96c22.31,37.288 40.465,76.087 65,111c104.069,136.499 218.452,259.467 380,328c61.842,26.235 130.448,42.455 202,59c36.33,6.333 72.67,12.667 109,19c-0.333,1 -0.667,2 -1,3c-19.655,1.273 -64.299,-5.471 -82,-9c-80.425,-16.033 -148.941,-28.95 -215,-56c-173.637,-71.1 -295.028,-194.467 -401,-336c-24.196,-34.297 -42.041,-72.257 -64,-109c-31.038,-51.933 -58.336,-102.135 -84,-162c-6.666,-13.999 -13.334,-28.001 -20,-42c-1.667,1 -3.333,2 -5,3c-0.342,26.138 7.479,41.563 9,64c-0.667,0.333 -1.333,0.667 -2,1c-13.259,1.851 -20.583,-21.431 -27,-32c-21.665,-33.33 -43.335,-66.67 -65,-100c-65.437,-82.447 -120.379,-141.52 -195,-204c-25.053,-19.482 -54.1,-46.896 -87,-57c-16.954,-5.207 -39.048,5.191 -56,8c0.667,0.333 1.333,0.667 2,1c9.999,8.999 20.001,18.001 30,27c31.127,38.622 61.112,79.142 89,121c18.372,27.576 47.048,77.337 70,103c-34.33,-57.661 -68.67,-115.339 -103,-173c11.335,9.164 19.503,23.822 28,38c10.725,17.896 21.23,35.987 31,52c38.663,65.327 77.337,130.673 116,196c-1.333,-1 -2.667,-2 -4,-3c-9.666,-14.332 -19.334,-28.668 -29,-43c-27.18,-58.303 -70.107,-94.9 -125,-178c-30.759,-43.652 -68.124,-107.081 -111,-139c-11.666,4.666 -23.334,9.334 -35,14c7.392,43.249 7.366,97.265 12,146c52.803,2.731 78.738,46.439 81,114c-2.666,19.665 -5.334,39.335 -8,59c9.666,26.331 19.334,52.669 29,79c25.091,63.703 48.196,125.329 75,187c83.263,191.573 197.629,367.961 396,445c63.873,24.806 157.173,23.887 236,33c-20.665,-6.666 -41.335,-13.334 -62,-20c-43.858,-18.883 -81.614,-34.081 -128,-56c-127.122,-70.428 -204.2,-145.527 -281,-261c-25.958,-39.029 -47.452,-78.435 -66,-126c-4.639,-11.897 -12.964,-23.692 -13,-53c1.856,22.571 11.628,42.177 19,60c29.738,71.897 68.504,128.513 115,185c89.454,108.244 156.42,160.396 322,230c38.422,16.279 81.68,33.801 125,44c31.33,2.667 59.911,6.253 94,8c112.245,11.986 246.898,5.511 360,0c-0.333,1 -0.667,2 -1,3c-2.333,2.667 -4.667,5.333 -7,8c-4.666,0.333 -9.334,0.667 -14,1c0,4.666 0,9.334 0,14c-22.664,22.331 -45.336,44.669 -68,67c0,-25.664 0,-51.336 0,-77c-25.664,0.333 -51.336,0.667 -77,1c0.333,27.664 0.667,55.336 1,83c5.815,14.295 23.561,22.912 28,40c-2.333,2.333 -4.667,4.667 -7,7c-1,-0.667 -2,-1.333 -3,-2c-9.297,-26.752 -85.618,-114.96 -109,-128c-43.662,-2 -87.725,-6.533 -132,-7c-87.991,-9.333 -175.009,-17.667 -263,-27c10.666,34.663 21.334,69.337 32,104c17.351,68.86 24.307,137.993 36,215c2.467,16.246 2.442,95.774 -1,118c-1.333,0.333 -2.667,0.667 -4,1c0,-24.664 0,-49.336 0,-74c-1.062,-34.575 -3.579,-56.568 -9,-111c-17.069,-88.776 -30.521,-174.67 -58,-254c-74.707,-5.83 -162.267,-58.221 -207,-92c-14.332,-12.332 -28.668,-24.668 -43,-37c59.085,128.826 147.811,224.894 217,343c23.016,39.289 35.047,83.059 50,131c10.168,32.601 23.275,62.935 27,102c-31.146,-0.065 -109.857,29.819 -135,26c-4.443,-16.649 -17.381,-29.879 -26,-43c-21.894,-33.331 -47.43,-72.099 -65,-110c-7.149,-43.311 -4.478,-99.048 -9,-143c-9.093,-77.237 -20.502,-174.053 -45,-246c-5.084,-12.559 -12.579,-23.449 -19,-34c15.074,46.26 25.724,99.453 37,156c6.666,57.994 13.334,116.006 20,174c4.032,56.229 5.168,109.369 14,160c2,16.332 4,32.668 6,49c1.333,-24.998 2.667,-50.002 4,-75c0,0.667 0,1.333 0,2c7.666,13.332 15.334,26.668 23,40c16.142,25.597 36.729,44.649 49,75c-31.663,4.333 -63.337,8.667 -95,13c-25.664,0.667 -51.336,1.333 -77,2c-68.803,0.005 -125.995,-3.97 -184,-12c7.2,-24.589 9.046,-31.933 17,-54c19.624,-29.609 52.479,-58.5 66,-94c4.798,-12.597 9.588,-42.137 5,-60c-5.696,-22.176 -23.682,-42.946 -35,-61c-18.233,-29.087 -44.713,-83.403 -69,-104c34.581,101.612 -4.298,234.057 -45,320c0.667,-0.333 8.333,-13.667 9,-14c5.999,-9.666 12.001,-19.334 18,-29c14.023,-23.906 21.535,-54.939 24,-90c0.667,0.333 1.333,0.667 2,1c1.338,72.412 -8.121,128.038 -32,177c19.096,-6.591 31.182,-24.6 46,-36c-4,14.332 -8,28.668 -12,43c-1.333,0 -2.667,0 -4,0c-39.663,-8.333 -79.337,-16.667 -119,-25c-34.996,-12.999 -70.004,-26.001 -105,-39c-26.962,-10.46 -65.597,-17.421 -84,-37c-2.297,-110.297 49.613,-199.938 81,-284c6.666,-13.999 13.334,-28.001 20,-42c0.333,0 0.667,0 1,0c-0.493,47.356 -8.943,114.201 3,160c0.667,-0.333 1.878,-15.667 1,-16c7.637,-60.005 8.196,-123.846 9,-190c0.176,-14.485 11.306,-54.544 5,-64c-2.666,-3.333 -5.334,-6.667 -8,-10c-1,0 -2,0 -3,0c-1.593,28.884 -6.057,51.499 -7,79c-19.455,55.539 -47.914,104.883 -72,171c-23.2,58.068 -30.848,95.02 -56,189c-38.177,-16.503 -69.763,-41.037 -103,-62c-23.738,-14.971 -47.456,-28.365 -69,-45c-14.971,-11.56 -42.42,-26.107 -48,-46c-7.333,-26.145 12.615,-70.728 20,-85c35.603,-68.809 102.15,-103.691 144,-165c18.981,-37.37 38.103,-74.253 59,-112c2.949,-5.038 20.456,-31.284 18,-38c-12.332,-14.999 -24.668,-30.001 -37,-45c-7.995,-11.412 -32.288,-43.889 -44,-48c-21.998,6.666 -47.002,13.334 -69,20c-78.788,28.353 -101.3,41.512 -180,7c-9.98,-6.331 -5.951,-22.806 -12,-33c-6.666,-8.999 -13.334,-18.001 -20,-27c-26.821,-32.002 -55.436,-46.275 -108,-50c-15.484,-0.141 -29.335,2.667 -44,4c-26.211,-33.92 -47.767,-59.747 -71,-100c-13.057,-23.159 -20.137,-31.309 -21,-43c6.879,-9.247 19.955,-14.198 29,-21c12.766,-9.6 25.403,-28.573 32,-44c20.526,-47.998 8.352,-133.525 -18,-169c-11.332,-5.333 -22.668,-10.667 -34,-16c-23.729,-17.073 -36.232,-30.234 -53,-50c10.808,18.151 28.21,51.488 47,73c10.332,5.333 20.668,10.667 31,16c0,0.333 0,0.667 0,1c-0.667,0 -1.333,0 -2,0c-35.086,-1.314 -44.17,-7.155 -54,-13c-36.038,-18.807 -85.288,-77.658 -101,-115c-0.333,0 -2.667,-6 -3,-6c12.502,51.588 29.249,90.54 50,129c-0.333,0 -0.667,0 -1,0c-20.399,-15.763 -30.694,-41.99 -44,-65c-78.835,-141.318 -64.332,-408.181 -9,-561c62.06,-171.401 165.027,-277.105 312,-363c31.438,-13.899 62.961,-27.911 96,-38c17.998,-3.333 36.002,-6.667 54,-10c8.405,-4.758 17.136,-13.755 26,-19c80.649,-40.893 270.097,-116.456 405,-88c51.116,10.782 98.791,26.028 144,44c175.035,69.58 328.427,220.664 395,407c17.323,55.182 26.62,112.744 38,173c3.333,34.663 6.667,69.337 10,104c1,40.329 2,80.671 3,121c1,34.33 2,68.67 3,103c1.333,22.331 2.667,44.669 4,67c8.532,51.037 9.182,102.507 21,150c11.465,46.071 20.965,92.359 38,133c27.993,66.783 84.886,140.487 128,195c16.665,17.665 33.335,35.335 50,53c25.664,27.664 51.336,55.336 77,83c0.333,0 0.667,0 1,0c-0.034,-37.369 -6.11,-71.687 -4,-114c-24.664,-0.333 -49.336,-0.667 -74,-1c-22.318,-21.308 -59.883,-68.091 -74,-90c1,-0.667 3,0.667 4,0c12.812,-1.875 42.149,-2.001 59,-2c46.995,0 94.005,0 141,0c164.983,-0.333 330.017,-0.667 495,-1c-4.665,34.845 -16.219,66.799 -23,98c-12.999,0 -26.001,0 -39,0zm-296,-1475c-33.663,53.328 -67.337,106.672 -101,160c0.333,0.667 0.667,1.333 1,2c39.829,24.052 82,79.742 159,50c16.792,-7.828 30.41,-21.687 41,-36c62.504,-74.192 -41.3,-156.289 -100,-176zm21,39c25.433,12.909 54.254,32.794 62,63c10.944,42.674 -41.751,96.799 -85,89c-26.688,-4.812 -38.93,-21.296 -59,-31c0.667,-0.667 1.333,-1.333 2,-2c26.664,-39.663 53.336,-79.337 80,-119zm160,99c-42.329,46.662 -84.671,93.338 -127,140c0,0.667 0,1.333 0,2c7.666,6.666 15.334,13.334 23,20c0.667,0 1.333,0 2,0c17.998,-18.998 36.002,-38.002 54,-57c1,1 2,2 3,3c7.967,3.79 13.228,11.896 18,19c20.974,36.486 -17.266,47.939 -29,86c7.333,7.999 14.667,16.001 22,24c0.667,-0.333 1.333,-0.667 2,-1c10.559,-32.562 50.343,-55.053 37,-94c40.253,23.746 88.972,-4.525 77,-52c-15.372,-37.597 -49.622,-68.319 -82,-90zm12,42c21.9,9.109 59.53,54.283 24,76c-17.414,10.528 -37.327,2.612 -67,-31c7.51,-6.934 19,-19 19,-19c0,0 15.001,-16.001 24,-26zm-501,106c4,0.667 8,1.333 12,2c1.333,1.667 2.667,3.333 4,5c-5.227,39.876 -63.216,67.923 -94,73c0,-1 0,-2 0,-3c2.667,-7.333 5.333,-14.667 8,-22c-1,-0.667 -2,-1.333 -3,-2c-2.333,-0.333 -4.667,-0.667 -7,-1c-17.067,12.024 -28.668,27.335 -43,41c-33.438,41.664 -71.085,93.736 -78,160c-0.333,0 -0.667,0 -1,0c-6.999,-32.663 -14.001,-65.337 -21,-98c22.127,-23.734 43.596,-53.471 71,-75c32.143,-25.252 68.232,-49.995 108,-67c13.698,-5.857 29.232,-6.577 44,-13zm-184,456c-1.667,-31.997 -3.333,-64.003 -5,-96c13.762,12.422 21.134,28.112 40,36c72.095,30.144 128.239,-16.02 182,-33c4.304,-42.134 34.923,-141.483 -3,-147c-11.346,2.665 -22.521,12.7 -34,6c0,-0.333 0,-0.667 0,-1c0.333,-1 0.667,-2 1,-3c8.75,-18.586 87.483,-67.858 121,-51c24.127,12.135 14.375,66.353 10,94c48.865,-26.049 107.091,-76.041 187,-52c-0.644,3.635 -0.403,3.027 -2,5c-10.845,13.051 -57.259,42.708 -76,46c-23.409,-0.198 -44.896,-13.741 -67,-3c-14.854,7.218 -42.727,53.067 -50,70c-1.667,6.999 -3.333,14.001 -5,21c-4.631,10.878 -25.06,21.934 -35,28c-10.136,6.185 -39.31,20.242 -51,20c-2.66,-0.055 0.871,-6.47 0,-10c-61.964,29.336 -127.04,62.283 -213,70zm932,-281c-25.997,4.333 -52.003,8.667 -78,13c-39.996,8.999 -80.004,18.001 -120,27c5.666,9.666 11.334,19.334 17,29c15.538,-3.375 44.299,-10.43 59,-12c9.999,18.998 21.001,39.002 31,58c-6.333,5.999 -12.667,12.001 -19,18c-7.319,7.353 -22,22 -22,22l15,33l7,-8c0,0 12.107,-10.814 21,-20c8.945,-6.238 71.92,-71.805 114,-119c-6.999,-13.665 -14.001,-27.335 -21,-41c-1.333,0 -2.667,0 -4,0zm-518,118c2.233,-19.541 77.397,-67.44 100,-53c28.716,18.345 30.369,56.489 52,79c10.934,-5.651 21.404,-6.849 30.498,-14.389c10.594,-15.416 28.63,-37.029 30.502,-64.611c-2.667,-3.333 -5.333,-6.667 -8,-10c9.802,-16.586 60.096,-44.144 84,-48c4.066,1.957 5.996,2.851 8,7c3.412,32.759 -46.523,96.627 -61,117c-45.662,64.66 -91.338,129.34 -137,194c-22.664,33.663 -45.336,67.337 -68,101c6.802,-1.37 12.168,-4.535 19,-3c0,0.333 0,0.667 0,1c-11.025,19.037 -76.514,59.882 -107,54c14.411,-26.465 43.048,-69.018 55,-86c43.252,-61.454 86.135,-122.009 129,-183c-14.726,4.795 -22.28,12.837 -43,13c-23.104,-31.941 -35.331,-83.596 -68,-106c-5.333,0.667 -10.667,1.333 -16,2zm497,-83c0,0 10,-3 11,-3c-21.331,21.998 -42.669,44.002 -64,66c-8.666,-16.332 -26,-49 -26,-49l79,-14zm-2126,107c-5.666,30.33 -11.334,60.67 -17,91c-12.565,72.344 -17.322,159.698 -11,250c20.65,-15.926 38.043,-43.587 52,-66c5,-8.333 10,-16.667 15,-25c-12.008,47.154 -37.678,82.372 -63,116c0.648,23.883 7.308,42.68 17,58c-29.838,-19.351 -34.39,-39.056 -41,-44c-3.333,0 -7.667,0 -11,0c6.334,17.31 12.852,48.81 29,65c6.333,2 12.667,4 19,6c-0.667,0 -1.333,0 -2,0c-12.067,1.645 -26.927,18.254 -27,42c-0.667,-0.333 -1.333,-0.667 -2,-1c0,-0.667 0,-1.333 0,-2c-4.592,-10.408 -2.246,-23.782 -2,-37c-20.616,3.105 -51.543,4.407 -70,1c19.879,36.546 34.84,58.976 37.415,79.09c5.036,39.327 3.144,82.331 -7.415,112.91c-30.593,54.938 -52.097,50.843 -62,68c15.394,31.598 61.545,98.789 88,125c85.405,-23.499 147.038,41.631 172,83c9.39,18.35 3.543,24.577 9,29c13.106,4.901 33.274,13.419 53,17c41.166,7.472 151.071,-42.47 178,-57c-0.667,-0.667 -1.333,-1.333 -2,-2c-8.999,-11.999 -18.001,-24.001 -27,-36c-13.999,-22.664 -28.001,-45.336 -42,-68c-45.79,-81.574 -75.886,-167.033 -104,-256c-17.236,-54.545 -28.698,-112.489 -43,-170c-4.666,-26.331 -9.334,-52.669 -14,-79c-8.666,-11.999 -17.334,-24.001 -26,-36c-20.11,-32.914 -38.179,-69.307 -53,-107c-9.999,-33.33 -20.001,-66.67 -30,-100c-4.333,-18.998 -8.667,-38.002 -13,-57zm2222,5c0,0 -97.005,32.335 -144,48c-12.299,4.329 -29.939,6.015 -39,14c3.333,8.999 6.667,18.001 10,27c49.995,-15.998 100.005,-32.002 150,-48c-0.333,0.667 -0.667,1.333 -1,2c-42.966,33.42 -84.004,67.337 -126,101c2.333,7.666 4.667,15.334 7,23c55.328,4.333 110.672,8.667 166,13c0,0.333 0,0.667 0,1c-51.338,14.677 -100.005,30.668 -150,46c2.333,10.666 4.667,21.334 7,32c0.333,0 0.667,0 1,0c61.327,-18.998 122.673,-38.002 184,-57c-4,-15.665 -8,-31.335 -12,-47c-37.33,-3.666 -74.67,-7.334 -112,-11c-15.665,0 -31.335,0 -47,0c0.667,0 1.333,0 2,0c16.332,-11.666 32.668,-23.334 49,-35c15.998,-14.332 32.002,-28.668 48,-43c7.763,-6.25 20.023,-13.339 24,-23c-3.472,-10.004 -17,-43 -17,-43zm-23,40l2,0l-2,0zm-1270,124c-1.333,-11.332 -2.667,-22.668 -4,-34c-12.139,-11.611 -37.9,-14.995 -55,-21c-72.629,-23.738 -157.115,-58.816 -190,-32c0.208,4.313 0.262,4.827 2,7c48.942,-9.059 165.369,32.101 196,50c15.439,9.022 30.911,27.756 51,30zm-374,-59c-26.449,7.111 -40.637,57.623 -56,95c-29.379,71.478 -59.014,154.639 -59,252c7.666,4.333 15.334,8.667 23,13c-8.152,-28.314 -2.651,-72.071 2,-100c13.436,-80.679 37.485,-144.296 66,-209c6.017,-13.654 27.842,-38.338 30,-48c-0.667,-1 -1.333,-2 -2,-3c-1.333,0 -2.667,0 -4,0zm965,31c87.627,-2.466 44.042,195.418 37,257c-2.333,19.331 -4.667,38.669 -7,58c0.333,0 0.667,0 1,0c16.281,-8.73 51.578,-26.095 63,-21c18.871,14.604 22.607,110.395 43,96c17.665,-20.998 35.335,-42.002 53,-63c4.669,-20.507 4.61,-42.503 4,-63c3.85,-13.426 67.333,-50.487 86,-48c-3.096,38.791 -6.58,74.505 -9,116c0,16.665 0,33.335 0,50c-3.441,14.248 -64.91,48.624 -86,49c0,-0.667 0,-1.333 0,-2c0,-14.665 0,-29.335 0,-44c-30.028,24.085 -59.723,39.989 -83.919,50.017c-37.891,15.705 -62.207,26.422 -76.081,-57.017c-0.333,0.667 -0.667,1.333 -1,2c-4.666,14.332 -9.334,28.668 -14,43c-6.677,14.945 -66.963,56.411 -89,51c0,-0.333 0,-0.667 0,-1c4.086,-27.42 21.473,-46.511 20,-79c-0.333,0 -0.667,0 -1,0c-36.707,19.284 -138.849,87.947 -197,58c-7.333,-30.997 -14.667,-62.003 -22,-93c-3.666,-23.331 -7.334,-46.669 -11,-70c28.995,-75.891 114.818,-140.132 185,-157c23.806,-4.909 38.808,7.103 57,9c0,1 0,2 0,3c-15.382,18.252 -51.613,38.91 -77,48c-15.238,3.413 -32.579,-13.97 -42,-7c-46.077,40.538 -93.362,175.015 -15,213c13.914,7.041 36.715,12.068 57,7c25.099,-6.27 48.897,-21.228 69,-34c6.25,-74.659 22.982,-138.343 23,-217c0.011,-49.91 2.353,-107.772 -48,-102c0,-0.333 0,-0.667 0,-1c18.267,-26.957 52.582,-35.812 81,-51zm-725,41c39.663,38.996 79.337,78.004 119,117c41.978,52.257 81.163,102.842 118,161c0.667,-0.333 1.333,-0.667 2,-1c-0.371,-36.471 -27.256,-54.891 -43,-77c-38.238,-53.697 -84.191,-100.033 -128,-147c-15.785,-19.53 -39.315,-47.51 -68,-53zm-89,25l3,4l-3,-4zm-135,32c-3.333,13.332 -7.667,31.668 -11,45c-0.553,33.795 2.667,65.337 4,98c7.553,78.039 9.649,150.322 29,215c7.925,26.488 11.54,70.149 33,83c3,-1.667 6,-3.333 9,-5c-46.432,-76.081 -47.51,-181.925 -61,-290c-1.333,-26.997 -2.667,-54.003 -4,-81c2.119,-13.553 3.42,-54.495 1,-65zm-532,9l1,2l-1,-2zm1997,14c11.84,-0.407 22.182,-0.024 29,4c0.333,2.333 0.667,4.667 1,7c-8.919,13.693 -64.503,48.1 -86,48c-0.208,-4.313 -0.262,-4.827 -2,-7c-15.593,-2.999 -26.851,-1.908 -43,4c-30.125,24.312 -53.831,66.213 -47,103c7.017,37.792 29.036,63.179 61,76c49.086,19.689 111.358,-4.382 141,-27c5,-6.333 10,-12.667 15,-19c7.821,-9.85 19.992,-16.242 31,-23c13.888,-8.526 33.619,-22.456 55,-23c0,0.333 0,0.667 0,1c-28.495,54.867 -158.926,119.932 -226,142c-59.921,16.382 -119.578,1.611 -146,-36c-20.534,-29.229 -19.49,-75.922 -3,-108c29.352,-57.097 94.916,-97.078 155,-126c19.648,-8.309 37.288,-11.666 65,-16zm-237,16c10.94,-3.778 7,6.667 7,10c-8.947,17.437 -68.77,50.514 -91,48c-2,-2.333 -4,-4.667 -6,-7c0.333,-1 0.667,-2 1,-3c33.1,-31.658 62.831,-46.837 79.517,-48.091c2.908,-0.219 7.419,-0.166 9.483,0.091zm-1261,11c-2,12.665 -4,25.335 -6,38c0.333,0 0.667,0 1,0c2.333,-0.667 4.667,-1.333 7,-2c-0.667,-11.999 -1.333,-24.001 -2,-36zm54,15c2,12.999 4,26.001 6,39c8.906,8.376 32.753,15.318 28,65c-0.883,-21.294 -11.992,-40.464 -25,-50c6.447,55.639 1.534,122.458 15,174c2,-1.667 4,-3.333 6,-5c7.826,-9.661 22.802,-26.702 30,-45c28.618,-78.176 12.778,-180.123 -60,-178zm-61,27c-0.405,10.813 -5.808,53.511 0,60c4.333,3 8.667,6 13,9c-1.333,-22.998 -2.667,-46.002 -4,-69c-3,0 -6,0 -9,0zm-606,0c4,11.332 8,25.668 12,37c1.333,-0.333 3.667,-0.667 5,-1c0.333,-0.667 0.667,-1.333 1,-2c-5.666,-10.332 -12.334,-23.668 -18,-34zm36,45c0,0 4.327,7.842 8,11c-0.55,-2.926 -3,-13 -3,-13l-5,2zm130,28c-0.641,4.977 -7.157,9.188 -11,14c12.818,-3.431 36.363,-11.875 54,-10c-0.667,0 -1.333,0 -2,0c-10.942,4.071 -20.292,10.058 -29,17c6.666,-1.333 13.334,-2.667 20,-4c0,0.333 0,0.667 0,1c-50.076,15.289 -95.713,54.483 -113,72c-14.237,16.171 -18.299,48.123 -38,60c4.595,-12.056 6,-26.668 9,-40c-0.667,0.333 -1.333,0.667 -2,1c-4,7.333 -8,14.667 -12,22c1.088,-14.01 5.842,-26.676 11,-37c-6.333,4.333 -12.667,8.667 -19,13c15.889,-23.364 26.972,-43.855 51,-59c24.782,-15.62 62.078,-29.54 81,-50zm43,2c1.333,0 2.667,0 4,0c0,0.333 0,0.667 0,1c-1.333,-0.333 -2.667,-0.667 -4,-1zm-11,14l2,0l-2,0zm-272,11c3.019,10.016 15.827,22.983 24,29c-6.666,-7.999 -17.334,-21.001 -24,-29zm549,2c11.503,48.129 32.876,96.068 51,140c6.666,16.332 13.334,32.668 20,49c-10.772,-50.195 -25.234,-101.462 -31,-155c-17.379,-6.923 -28.69,-20.819 -40,-34zm150,37c-8.999,11.666 -18.001,23.334 -27,35c-2.666,10.332 -5.334,20.668 -8,31c-1,0 -2,0 -3,0c-0.667,-1.667 -1.333,-3.333 -2,-5c2,-7.999 4,-16.001 6,-24c-6.034,-4.137 -5.259,-13.528 -3,-26c-2.666,0.333 -5.334,0.667 -8,1c-2.722,6.855 -3.537,15.333 -13,16c-12.665,-7.333 -25.335,-14.667 -38,-22c5,26.331 10,52.669 15,79c18.248,74.644 23.181,128.971 61,194c6.999,13.665 14.001,27.335 21,41c21.617,-16.378 43.924,-72.678 51,-104c1.519,-6.725 -29.64,-107.573 -34,-115c-30.38,4.007 -38.064,42.371 -74,15c-4.347,-3.885 -9.801,-7.963 -8,-15c1.625,-5.6 1.197,-3.841 5,-3c4.131,11.375 19.448,19.034 35,19c13.879,-7.391 20.597,-20.745 41,-22c-7.948,-24.795 -10.614,-70.192 -17,-95zm108,14c-5.116,17.135 -15.733,29.08 -25,42c11.332,11.666 22.668,23.334 34,35c12.665,15.332 25.335,30.668 38,46c-15.665,-40.996 -31.335,-82.004 -47,-123zm226,13l3,4l-3,-4zm4,5l2,3l-2,-3zm-259,27c-3.666,4.333 -7.334,8.667 -11,13c8.333,31.997 16.667,64.003 25,96c3.972,11.606 10.271,26.518 13,40c-17.4,2.171 -34.778,16.748 -49,19c-0.331,31.066 -7.391,65.483 -18,91c-5.999,12.999 -12.001,26.001 -18,39c8.333,13.665 16.667,27.335 25,41c58.125,-28.961 144.238,-56.965 211,-31c-15.665,-32.33 -31.335,-64.67 -47,-97c-15.998,-38.663 -32.002,-77.337 -48,-116c-16.998,-19.665 -34.002,-39.335 -51,-59c-10.666,-11.999 -21.334,-24.001 -32,-36zm-574,37c1.333,0.667 2.667,1.333 4,2c-7.333,19.331 -14.667,38.669 -22,58c-7.233,18.707 -10,39.335 -15,59c-1.106,-46.777 11.805,-93.588 33,-119zm42,2c-1.723,7.447 -20.988,51.286 -25,64c-2.333,10.666 -4.667,21.334 -7,32c0.015,-41.571 13.851,-72.448 32,-96zm47,3c2,0 4,0 6,0c0,0.667 0,1.333 0,2c-1.496,6.057 -17.444,43.702 -21,55c-2.333,11.666 -4.986,22.058 -7,35c-4.484,-45.931 3.595,-67.995 22,-92zm683,307c-0.22,-15.094 -10.326,-24.125 -16,-35c-89.389,-17.165 -146.335,5.245 -212,30c7.999,12.999 16.001,26.001 24,39c36.886,-21.132 63.567,-59.562 139,-53c11.999,2 24.001,4 36,6c9.33,3.821 16.83,11.688 29,13zm818,133c-1.333,-47.329 -2.667,-94.671 -4,-142c-16.665,0.333 -33.335,0.667 -50,1c1.333,44.329 2.667,88.671 4,133c16.665,2.667 33.335,5.333 50,8zm72,-141c0.333,49.995 0.667,100.005 1,150c24.998,2 50.002,4 75,6c-0.667,-51.995 -1.333,-104.005 -2,-156c-24.664,0 -49.336,0 -74,0zm150,1c-0.667,51.995 -1.333,104.005 -2,156c21.331,-0.333 42.669,-0.667 64,-1c0.333,-51.662 0.667,-103.338 1,-155c-20.998,0 -42.002,0 -63,0zm-2146,9c35.33,0 70.67,0 106,0c12.447,0 38,0 38,0l23,71c0,0 -31.335,11.667 -46,17c-26.331,9.333 -52.669,18.667 -79,28c-15.332,-37.996 -30.668,-76.004 -46,-114c1.333,-0.667 2.667,-1.333 4,-2zm13,12c12.332,29.997 24.668,60.003 37,90c33.997,-12.332 68.003,-24.668 102,-37c-5.333,-17.665 -10.667,-35.335 -16,-53c-40.996,0 -82.004,0 -123,0zm1153,59c19.407,65.408 52.452,78.765 39,204c-3.898,21.589 -8.303,41.385 -16,60c-10.743,25.982 -27.573,46.334 -36,73c0.667,-0.333 6.017,25.966 9,21c14.886,-39.018 39.145,-79.625 51,-123c20.03,-73.286 -8.442,-205.232 -47,-235zm-951,7c11.971,4.921 87.565,41.15 94,48c-0.667,0.667 -1.333,1.333 -2,2c-57.994,65.66 -116.006,131.34 -174,197c-10.92,-4.109 -16.632,-15.234 -25,-22c-24.331,-22.331 -48.669,-44.669 -73,-67c-7.35,-7.033 -29,-27 -29,-27c0,0 140.007,-88.338 209,-131zm2,13c-64.327,39.663 -128.673,79.337 -193,119c1.333,1.667 2.667,3.333 4,5c34.663,31.33 69.337,62.67 104,94c1,-0.667 2,-1.333 3,-2c51.995,-59.327 104.005,-118.673 156,-178c0,-0.333 0,-0.667 0,-1c-24.664,-12.332 -49.336,-24.668 -74,-37zm458,14c10.666,13.665 21.334,27.335 32,41c-14.999,28.997 -30.001,58.003 -45,87c-14.332,11.999 -28.668,24.001 -43,36c-0.667,16.665 -1.333,33.335 -2,50c-10.999,8.666 -22.001,17.334 -33,26c0,-15.998 0,-32.002 0,-48c-16.665,12.999 -33.335,26.001 -50,39c-0.667,21.665 -1.333,43.335 -2,65c-10.81,3.861 -35.535,48.537 -37,50c0.667,-27.997 1.333,-56.003 2,-84c-15.07,9.546 -36.189,22.948 -47,37c0.667,39.329 1.333,78.671 2,118c-0.333,0 -0.667,0 -1,0c-2.333,-2.333 -4.667,-4.667 -7,-7c-9.332,-8.333 -18.668,-16.667 -28,-25c-0.667,-18.665 -1.333,-37.335 -2,-56c-9.666,7.666 -19.334,15.334 -29,23c-15.667,-18.654 -57.508,-64.188 -69,-85c0.667,-1 1.333,-2 2,-3c118.988,-87.991 238.012,-176.009 357,-264zm-339,46c12.999,3 26.001,6 39,9c-0.333,33.33 -0.667,66.67 -1,100c0.001,17.948 -1,51 -1,51c0,0 -78.337,-6.334 -117,-10c26.664,-49.995 53.336,-100.005 80,-150zm404,1c-14.665,25.997 -29.335,52.003 -44,78c-10.999,21.665 -22.001,43.335 -33,65c-8.666,9.333 -17.334,18.667 -26,28c55.223,-35.583 82.139,-97.443 137,-134c-0.667,-0.667 -1.333,-1.333 -2,-2c-10.666,-11.666 -21.334,-23.334 -32,-35zm-399,13c-21.998,41.996 -44.002,84.004 -66,126c28.997,2.333 58.003,4.667 87,7c0.333,-42.996 0.667,-86.004 1,-129c-7.333,-1.333 -14.667,-2.667 -22,-4zm620,29l2,3l-2,-3zm-326,144c-31.301,22.064 -121.842,81.353 -130,157c0.333,0 0.667,0 1,0c0.333,0 0.667,0 1,0c19.158,-61.016 60.11,-87.027 93,-123c10.999,-10.332 22.001,-20.668 33,-31c0.667,-1 1.333,-2 2,-3zm695,12c0.167,85.233 1.718,166.285 6,256c0.333,0 0.667,0 1,0c10.008,-2.416 27.083,1.021 33,-3c-1.087,-13.813 -1.301,-36.782 -1,-50c1,-47.995 2,-96.005 3,-144c-13.999,-19.665 -28.001,-39.335 -42,-59zm600,9c-3.666,0.333 -9.334,-0.333 -13,0c0.667,0 2.333,2 3,2c3.333,2.667 6.667,4.333 10,7c-0.333,-3 0.333,-6 0,-9zm-1677,37c-4.666,6.999 -9.334,14.001 -14,21c13.019,4.207 23.253,15.215 31,25c34.452,34.806 25.473,83.064 -14,112c-51.681,37.885 -101.596,-8.198 -118,-50c-7.999,3.666 -16.001,7.334 -24,11c22.6,51.39 96.217,118.128 165,68c56.734,-41.347 60.385,-115.02 8,-161c-9.702,-9.706 -19.442,-21.347 -34,-26zm1168,209c13.665,0.333 27.335,0.667 41,1c0.667,-19.665 1.333,-39.335 2,-59c-12.665,-20.665 -25.335,-41.335 -38,-62c-0.333,0 -0.667,0 -1,0c-1.333,39.996 -2.667,80.004 -4,120zm-1039,-84c-42.996,47.662 -86.004,95.338 -129,143c0.667,1 1.333,2 2,3c8.999,6.999 18.001,14.001 27,21c41.329,-48.329 82.671,-96.671 124,-145c-7.999,-7.333 -16.001,-14.667 -24,-22zm56,49c-39.996,49.662 -80.004,99.338 -120,149c9.666,7.666 19.334,15.334 29,23c15.998,-20.665 32.002,-41.335 48,-62c23.998,17.332 48.002,34.668 72,52c0,0.333 0,0.667 0,1c-14.665,21.331 -29.335,42.669 -44,64c0.667,1 1.333,2 2,3c9.666,6 19.334,12 29,18c0,-0.667 0,-1.333 0,-2c34.663,-53.328 69.337,-106.672 104,-160c-0.667,-0.333 -1.333,-0.667 -2,-1c-5.218,-5.688 -19.393,-15.711 -26,-16c-15.665,23.664 -31.335,47.336 -47,71c-1,-0.333 -2,-0.667 -3,-1c-22.664,-16.998 -45.336,-34.002 -68,-51c0,-0.667 0,-1.333 0,-2c17.332,-21.998 34.668,-44.002 52,-66c-5.229,-6.84 -17.197,-17.312 -26,-20zm142,106c-2.666,7.999 -5.334,16.001 -8,24c75.025,17.224 96.019,72.682 52,131c-44.057,43.429 -94.636,12.53 -121,-16c-0.667,0 -1.333,0 -2,0c-5.666,5.333 -11.334,10.667 -17,16c0,0.667 0,1.333 0,2c49.456,46.009 122.924,78.031 177,10c50.045,-85.753 1.017,-149.953 -81,-167zm198,95c-10.332,25.331 -20.668,50.669 -31,76c-7.666,5 -15.334,10 -23,15c-26.459,18.709 -53.187,38.452 -86,57c0,0.667 0,1.333 0,2c12.332,5.333 24.668,10.667 37,16c28.051,-19.165 52.091,-40.675 78,-64c1.936,35.138 7.334,66.67 11,100c12.999,4.333 26.001,8.667 39,13c0,-1 0,-2 0,-3c-5.5,-17.447 -23.604,-109.714 -24,-126c9.666,-24.331 19.334,-48.669 29,-73c-9.999,-4.333 -20.001,-8.667 -30,-13zm95,36c0.037,44.367 -10.163,79.746 15,101c-34.787,-0.263 -70.135,33.348 -49,72c17.848,30.096 73.972,47.448 121,47c13.665,-61.66 27.335,-123.34 41,-185c-0.667,0 -1.333,0 -2,0c-9.666,-2.333 -19.334,-4.667 -29,-7c0,0.667 0,1.333 0,2c-6.333,25.331 -12.667,50.669 -19,76c-59.439,-8.397 -47.346,-37.031 -46,-97c-10.666,-3 -21.334,-6 -32,-9zm157,71c57.456,-3.871 91.548,12.324 100,61c3.38,19.464 -1.417,42.407 -9,55c-26.201,43.513 -83.177,36.954 -117,16c-4,7.333 -8,14.667 -12,22c0.333,0.667 0.667,1.333 1,2c63.199,30.521 134.959,25.615 167,-37c30.989,-108.224 -40.284,-154.122 -131,-144c0.333,8.333 0.667,16.667 1,25zm-128,49c14.332,2.667 28.668,5.333 43,8c0,0.333 0,0.667 0,1c-5.333,20.665 -10.667,41.335 -16,62c-68.424,-6.808 -77.821,-58.838 -27,-71z" id="svg_1" stroke="null"/>
</svg>