<svg xmlns="http://www.w3.org/2000/svg" width="64" height="64">
<path d="M0 0 C1.65 0 3.3 0 5 0 C5 1.32 5 2.64 5 4 C6.32 4 7.64 4 9 4 C9 5.32 9 6.64 9 8 C10.32 8 11.64 8 13 8 C13 9.32 13 10.64 13 12 C14.32 12 15.64 12 17 12 C17 13.32 17 14.64 17 16 C18.32 16 19.64 16 21 16 C21 17.32 21 18.64 21 20 C22.32 20 23.64 20 25 20 C25 22.97 25 25.94 25 29 C23.68 29 22.36 29 21 29 C21 30.32 21 31.64 21 33 C18.36 33 15.72 33 13 33 C13 34.32 13 35.64 13 37 C11.68 37 10.36 37 9 37 C9 38.32 9 39.64 9 41 C7.68 41 6.36 41 5 41 C5 42.32 5 43.64 5 45 C3.68 45 2.36 45 1 45 C1 47.64 1 50.28 1 53 C-0.32 53 -1.64 53 -3 53 C-3 54.32 -3 55.64 -3 57 C-5.97 57 -8.94 57 -12 57 C-12 55.68 -12 54.36 -12 53 C-13.32 53 -14.64 53 -16 53 C-16 51.68 -16 50.36 -16 49 C-17.32 49 -18.64 49 -20 49 C-20 47.68 -20 46.36 -20 45 C-21.32 45 -22.64 45 -24 45 C-24 43.68 -24 42.36 -24 41 C-25.32 41 -26.64 41 -28 41 C-28 38.03 -28 35.06 -28 32 C-26.68 32 -25.36 32 -24 32 C-24 30.68 -24 29.36 -24 28 C-22.68 28 -21.36 28 -20 28 C-20 26.68 -20 25.36 -20 24 C-18.68 24 -17.36 24 -16 24 C-16 22.68 -16 21.36 -16 20 C-14.68 20 -13.36 20 -12 20 C-12 18.68 -12 17.36 -12 16 C-10.68 16 -9.36 16 -8 16 C-8 14.68 -8 13.36 -8 12 C-6.68 12 -5.36 12 -4 12 C-4 9.36 -4 6.72 -4 4 C-2.68 4 -1.36 4 0 4 C0 2.68 0 1.36 0 0 Z " fill="#585345" transform="translate(36,4)"/>
<path d="M0 0 C0.99 0 1.98 0 3 0 C3 1.32 3 2.64 3 4 C4.32 4 5.64 4 7 4 C7 5.32 7 6.64 7 8 C8.32 8 9.64 8 11 8 C11.33 8.99 11.66 9.98 12 11 C12.99 11.33 13.98 11.66 15 12 C15 14.31 15 16.62 15 19 C13.68 19 12.36 19 11 19 C11 20.32 11 21.64 11 23 C9.68 23 8.36 23 7 23 C7 24.32 7 25.64 7 27 C5.68 27 4.36 27 3 27 C3 28.32 3 29.64 3 31 C1.68 31 0.36 31 -1 31 C-1 32.32 -1 33.64 -1 35 C-2.32 35 -3.64 35 -5 35 C-5 36.32 -5 37.64 -5 39 C-5.99 39 -6.98 39 -8 39 C-8 37.68 -8 36.36 -8 35 C-9.32 35 -10.64 35 -12 35 C-12 33.68 -12 32.36 -12 31 C-13.32 31 -14.64 31 -16 31 C-16 29.68 -16 28.36 -16 27 C-17.32 27 -18.64 27 -20 27 C-20 24.69 -20 22.38 -20 20 C-19.01 20 -18.02 20 -17 20 C-17 17.03 -17 14.06 -17 11 C-14.03 11 -11.06 11 -8 11 C-8 10.01 -8 9.02 -8 8 C-5.36 8 -2.72 8 0 8 C0 5.36 0 2.72 0 0 Z " fill="#D8CDB2" transform="translate(33,17)"/>
<path d="M0 0 C1.32 0 2.64 0 4 0 C4 1.65 4 3.3 4 5 C3.01 5 2.02 5 1 5 C1 7.31 1 9.62 1 12 C2.32 12 3.64 12 5 12 C5 13.32 5 14.64 5 16 C6.32 16 7.64 16 9 16 C9 17.32 9 18.64 9 20 C10.32 20 11.64 20 13 20 C13 21.32 13 22.64 13 24 C13.99 24 14.98 24 16 24 C16 22.68 16 21.36 16 20 C17.65 20 19.3 20 21 20 C21 19.01 21 18.02 21 17 C22.32 17 23.64 17 25 17 C25 19.64 25 22.28 25 25 C23.68 25 22.36 25 21 25 C21 26.32 21 27.64 21 29 C18.03 29 15.06 29 12 29 C12 27.68 12 26.36 12 25 C10.68 25 9.36 25 8 25 C8 23.68 8 22.36 8 21 C6.68 21 5.36 21 4 21 C4 19.68 4 18.36 4 17 C2.68 17 1.36 17 0 17 C0 15.68 0 14.36 0 13 C-1.32 13 -2.64 13 -4 13 C-4 10.03 -4 7.06 -4 4 C-2.68 4 -1.36 4 0 4 C0 2.68 0 1.36 0 0 Z " fill="#4A4539" transform="translate(12,32)"/>
<path d="M0 0 C0.99 0 1.98 0 3 0 C3 1.32 3 2.64 3 4 C4.32 4 5.64 4 7 4 C7 5.32 7 6.64 7 8 C8.32 8 9.64 8 11 8 C11.33 8.99 11.66 9.98 12 11 C12.99 11.33 13.98 11.66 15 12 C15 14.31 15 16.62 15 19 C13.68 19 12.36 19 11 19 C11 20.32 11 21.64 11 23 C9.68 23 8.36 23 7 23 C7 20.69 7 18.38 7 16 C5.68 16 4.36 16 3 16 C3 14.68 3 13.36 3 12 C1.68 11.67 0.36 11.34 -1 11 C-0.835 10.484375 -0.67 9.96875 -0.5 9.4375 C0.15049 6.26636124 0.0620734 3.22781666 0 0 Z " fill="#C6BCA5" transform="translate(33,17)"/>
<path d="M0 0 C1.32 0 2.64 0 4 0 C4 1.65 4 3.3 4 5 C3.01 5 2.02 5 1 5 C0.67 7.64 0.34 10.28 0 13 C1.32 13 2.64 13 4 13 C4 14.32 4 15.64 4 17 C5.32 17 6.64 17 8 17 C8 18.32 8 19.64 8 21 C10.31 21 12.62 21 15 21 C15 21.66 15 22.32 15 23 C14.34 23.33 13.68 23.66 13 24 C12.34786708 26.02463255 12.34786708 26.02463255 12 28 C11.01 28 10.02 28 9 28 C9 26.68 9 25.36 9 24 C7.68 24 6.36 24 5 24 C5 22.68 5 21.36 5 20 C3.68 20 2.36 20 1 20 C1 18.68 1 17.36 1 16 C-0.32 16 -1.64 16 -3 16 C-3 13.69 -3 11.38 -3 9 C-2.01 9 -1.02 9 0 9 C0 6.03 0 3.06 0 0 Z " fill="#A59D8A" transform="translate(16,28)"/>
<path d="M0 0 C1.32 0 2.64 0 4 0 C4 1.32 4 2.64 4 4 C5.32 4 6.64 4 8 4 C8 6.97 8 9.94 8 13 C6.68 13 5.36 13 4 13 C4 14.32 4 15.64 4 17 C1.36 17 -1.28 17 -4 17 C-4 14.36 -4 11.72 -4 9 C-3.01 9 -2.02 9 -1 9 C-1 9.99 -1 10.98 -1 12 C0.32 12 1.64 12 3 12 C3 10.68 3 9.36 3 8 C2.01 8 1.02 8 0 8 C0 5.36 0 2.72 0 0 Z " fill="#38342A" transform="translate(53,20)"/>
<path d="M0 0 C1.32 0 2.64 0 4 0 C4 2.64 4 5.28 4 8 C2.68 8 1.36 8 0 8 C0 9.32 0 10.64 0 12 C-2.97 12 -5.94 12 -9 12 C-9 10.68 -9 9.36 -9 8 C-7.68 8 -6.36 8 -5 8 C-5 6.35 -5 4.7 -5 3 C-3.35 3 -1.7 3 0 3 C0 2.01 0 1.02 0 0 Z " fill="#3B372C" transform="translate(33,49)"/>
<path d="M0 0 C0.99 0 1.98 0 3 0 C3 1.32 3 2.64 3 4 C4.32 4 5.64 4 7 4 C7 5.32 7 6.64 7 8 C8.32 8 9.64 8 11 8 C11 9.32 11 10.64 11 12 C12.32 12 13.64 12 15 12 C15 14.31 15 16.62 15 19 C14.01 19 13.02 19 12 19 C12 17.68 12 16.36 12 15 C10.68 15 9.36 15 8 15 C8 13.68 8 12.36 8 11 C6.68 11 5.36 11 4 11 C4 9.68 4 8.36 4 7 C2.68 7 1.36 7 0 7 C0 4.69 0 2.38 0 0 Z " fill="#CEC3AA" transform="translate(37,9)"/>
<path d="M0 0 C0.33 0 0.66 0 1 0 C1 3.96 1 7.92 1 12 C-0.32 12 -1.64 12 -3 12 C-3 13.32 -3 14.64 -3 16 C-4.32 16 -5.64 16 -7 16 C-7 17.32 -7 18.64 -7 20 C-9.64 20 -12.28 20 -15 20 C-15.33 20.99 -15.66 21.98 -16 23 C-16 21.68 -16 20.36 -16 19 C-14.68 19 -13.36 19 -12 19 C-12 17.68 -12 16.36 -12 15 C-10.68 15 -9.36 15 -8 15 C-8 13.68 -8 12.36 -8 11 C-6.68 11 -5.36 11 -4 11 C-4 9.68 -4 8.36 -4 7 C-2.68 7 -1.36 7 0 7 C0 4.69 0 2.38 0 0 Z " fill="#4E4A3E" transform="translate(48,29)"/>
<path d="M0 0 C1.65 0 3.3 0 5 0 C5 1.32 5 2.64 5 4 C6.32 4 7.64 4 9 4 C9 5.32 9 6.64 9 8 C9.99 8 10.98 8 12 8 C12 5.36 12 2.72 12 0 C12.33 0 12.66 0 13 0 C13 2.64 13 5.28 13 8 C13.99 8 14.98 8 16 8 C16 9.32 16 10.64 16 12 C14.68 12 13.36 12 12 12 C12 11.01 12 10.02 12 9 C9.69 9 7.38 9 5 9 C4.67 7.68 4.34 6.36 4 5 C2.68 5 1.36 5 0 5 C0 3.35 0 1.7 0 0 Z " fill="#605A4C" transform="translate(40,20)"/>
<path d="M0 0 C2.97 0 5.94 0 9 0 C9 1.32 9 2.64 9 4 C9.99 4.33 10.98 4.66 12 5 C11.01 5 10.02 5 9 5 C8.67 5.99 8.34 6.98 8 8 C8 7.01 8 6.02 8 5 C5.69 5 3.38 5 1 5 C1 5.99 1 6.98 1 8 C-0.65 8 -2.3 8 -4 8 C-4 6.68 -4 5.36 -4 4 C-2.68 4 -1.36 4 0 4 C0 2.68 0 1.36 0 0 Z " fill="#7A7362" transform="translate(24,20)"/>
<path d="M0 0 C2.31 0 4.62 0 7 0 C7 1.32 7 2.64 7 4 C7.99 4 8.98 4 10 4 C10 4.66 10 5.32 10 6 C9.01 6 8.02 6 7 6 C7 7.65 7 9.3 7 11 C5.68 11 4.36 11 3 11 C3 8.36 3 5.72 3 3 C2.01 3 1.02 3 0 3 C0 2.01 0 1.02 0 0 Z " fill="#C6BCA5" transform="translate(29,37)"/>
<path d="M0 0 C0.99 0 1.98 0 3 0 C3 1.32 3 2.64 3 4 C4.32 4 5.64 4 7 4 C7 5.32 7 6.64 7 8 C8.32 8 9.64 8 11 8 C11 8.99 11 9.98 11 11 C8.69 11 6.38 11 4 11 C4 9.68 4 8.36 4 7 C2.68 7 1.36 7 0 7 C0 4.69 0 2.38 0 0 Z " fill="#E1D5B9" transform="translate(33,17)"/>
<path d="M0 0 C1.65 0 3.3 0 5 0 C5 1.32 5 2.64 5 4 C7.64 4 10.28 4 13 4 C13 5.32 13 6.64 13 8 C13.99 8 14.98 8 16 8 C16 9.32 16 10.64 16 12 C14.68 11.67 13.36 11.34 12 11 C12.99 11 13.98 11 15 11 C15 10.34 15 9.68 15 9 C14.01 9 13.02 9 12 9 C12 7.68 12 6.36 12 5 C9.69 5 7.38 5 5 5 C5 5.99 5 6.98 5 8 C5.99 8.33 6.98 8.66 8 9 C6.68 9 5.36 9 4 9 C4 7.68 4 6.36 4 5 C2.68 5 1.36 5 0 5 C0 3.35 0 1.7 0 0 Z " fill="#CDC2AA" transform="translate(24,32)"/>
<path d="M0 0 C1.32 0.33 2.64 0.66 4 1 C4 3.31 4 5.62 4 8 C2.35 8 0.7 8 -1 8 C-1 8.99 -1 9.98 -1 11 C-1.66 11 -2.32 11 -3 11 C-3 8.69 -3 6.38 -3 4 C-2.01 4 -1.02 4 0 4 C0 2.68 0 1.36 0 0 Z " fill="#BEB49E" transform="translate(44,28)"/>
<path d="M0 0 C4.29 0 8.58 0 13 0 C12.67 1.65 12.34 3.3 12 5 C10.68 5 9.36 5 8 5 C8 3.68 8 2.36 8 1 C7.01 1 6.02 1 5 1 C5 1.99 5 2.98 5 4 C3.35 4 1.7 4 0 4 C0 2.68 0 1.36 0 0 Z " fill="#5A5446" transform="translate(28,16)"/>
<path d="M0 0 C1.32 0 2.64 0 4 0 C4 1.65 4 3.3 4 5 C3.01 5 2.02 5 1 5 C0.67 8.63 0.34 12.26 0 16 C-0.99 16 -1.98 16 -3 16 C-3 13.69 -3 11.38 -3 9 C-2.01 9 -1.02 9 0 9 C0 6.03 0 3.06 0 0 Z " fill="#7D7666" transform="translate(16,28)"/>
<path d="M0 0 C1.32 0 2.64 0 4 0 C4 2.97 4 5.94 4 9 C2.68 9 1.36 9 0 9 C0 6.03 0 3.06 0 0 Z " fill="#373329" transform="translate(8,36)"/>
<path d="M0 0 C0.99 0 1.98 0 3 0 C3 1.32 3 2.64 3 4 C4.32 4 5.64 4 7 4 C7 4.99 7 5.98 7 7 C4.69 7 2.38 7 0 7 C0 4.69 0 2.38 0 0 Z " fill="#DCD1B6" transform="translate(37,9)"/>
<path d="M0 0 C0.33 1.32 0.66 2.64 1 4 C3.31 4 5.62 4 8 4 C8 4.33 8 4.66 8 5 C5.69 5 3.38 5 1 5 C1 5.99 1 6.98 1 8 C1.99 8.33 2.98 8.66 4 9 C2.68 9 1.36 9 0 9 C0 7.68 0 6.36 0 5 C-1.32 4.67 -2.64 4.34 -4 4 C-3.67 3.01 -3.34 2.02 -3 1 C-2.01 0.67 -1.02 0.34 0 0 Z " fill="#CDC2AA" transform="translate(36,24)"/>
<path d="M0 0 C1.32 0 2.64 0 4 0 C4 2.64 4 5.28 4 8 C2.68 8 1.36 8 0 8 C0 5.36 0 2.72 0 0 Z " fill="#343026" transform="translate(32,8)"/>
<path d="M0 0 C2.31 0 4.62 0 7 0 C7 0.66 7 1.32 7 2 C6.01 2.495 6.01 2.495 5 3 C4.34786708 5.02463255 4.34786708 5.02463255 4 7 C3.01 7 2.02 7 1 7 C0.67 4.69 0.34 2.38 0 0 Z " fill="#ABA38F" transform="translate(24,49)"/>
<path d="M0 0 C0.33 0 0.66 0 1 0 C1 2.64 1 5.28 1 8 C1.99 8 2.98 8 4 8 C4 9.32 4 10.64 4 12 C2.68 12 1.36 12 0 12 C0 11.01 0 10.02 0 9 C-0.99 8.67 -1.98 8.34 -3 8 C-2.01 8 -1.02 8 0 8 C0 5.36 0 2.72 0 0 Z " fill="#767062" transform="translate(52,20)"/>
<path d="M0 0 C2.97 0.495 2.97 0.495 6 1 C6 1.66 6 2.32 6 3 C5.01 3.33 4.02 3.66 3 4 C2.67 4.99 2.34 5.98 2 7 C1.34 7 0.68 7 0 7 C0 4.69 0 2.38 0 0 Z " fill="#BBB19B" transform="translate(33,40)"/>
<path d="M0 0 C0.99 0 1.98 0 3 0 C3 2.31 3 4.62 3 7 C2.01 7 1.02 7 0 7 C0 4.69 0 2.38 0 0 Z " fill="#D4C9B0" transform="translate(49,21)"/>
<path d="M0 0 C1.65 0 3.3 0 5 0 C5 1.32 5 2.64 5 4 C3.35 4 1.7 4 0 4 C0 2.68 0 1.36 0 0 Z " fill="#363228" transform="translate(36,4)"/>
</svg>
