<svg xmlns="http://www.w3.org/2000/svg" width="100" height="100" viewBox="0 0 100 100">
<path d="M43 17 C60.49 17 77.98 17 96 17 C96 18.32 96 19.64 96 21 C85.605 21.495 85.605 21.495 75 22 C77.97 22.33 80.94 22.66 84 23 C82.3055 24.12968 80.6036 25.24895 78.879 26.332 C72.503 30.2368 72.503 30.2368 68 36 C67.4789 39.4116 67.2217 42.6236 68 46 C70.3353 48.2163 71.9584 48.9873 75.0625 49.9375 C78.4187 51.1514 79.4477 51.8092 81 55 C81.1875 58.75 81.1875 58.75 81 62 C77.7 62 74.4 62 71 62 C71 59.69 71 57.38 71 55 C69.68 54.34 68.36 53.68 67 53 C67 55.3722 68.9424 57.9288 70 60 C69.4934 59.8376 68.9868 59.6752 68.4648 59.5078 C65.137 58.8222 61.9583 58.8683 58.5625 58.875 C56.6154 58.8711 56.6154 58.8711 54.6289 58.8672 C51.5989 58.9781 48.935 59.2875 46 60 C47.1245 57.0281 48.223 54.6656 50 52 C46.6489 54.2341 45.1845 55.2622 44.1875 59.25 C44.0947 60.6113 44.0947 60.6113 44 62 C40.7 62 37.4 62 34 62 C33.6944 58.1039 33.6071 55.6915 35.5625 52.25 C38.5768 49.4675 41.1755 48.4432 45 47 C45.495 46.505 45.495 46.505 46 46 C45.7475 42.4825 45.7475 42.4825 45 39 C42.4195 37.7097 40.384 37.854 37.5 37.75 C25.6122 36.7747 16.8079 29.506 8 22 C7.67 21.34 7.34 20.68 7 20 C16.24 20 25.48 20 35 20 C35.33 22.31 35.67 24.62 36 27 C36.33 24.36 36.66 21.72 37 19 C38.32 19 39.64 19 41 19 C41.495 21.475 41.495 21.475 42 24 C42.33 21.69 42.66 19.38 43 17 Z " fill="#2C3541"/>
</svg>
