<?xml version="1.0" standalone="no"?><!DOCTYPE svg PUBLIC "-//W3C//DTD SVG 1.1//EN" "http://www.w3.org/Graphics/SVG/1.1/DTD/svg11.dtd"><svg t="1725714467900" class="icon" viewBox="0 0 1024 1024" version="1.1" xmlns="http://www.w3.org/2000/svg" p-id="11831" xmlns:xlink="http://www.w3.org/1999/xlink" width="200" height="200"><path d="M512 1024a512 512 0 1 1 512-512 512 512 0 0 1-512 512zM425.86112 279.40864H326.86592v278.69696q0 108.30336-71.3984 108.30336a94.91968 94.91968 0 0 1-58.79808-19.50208v93.30176a173.7216 173.7216 0 0 0 65.1008 11.99616q79.20128 0 121.6512-49.19808t42.44992-141.312V279.40864z m206.10048 84.44928q21.89312-13.34784 58.50112-13.35296a190.14656 190.14656 0 0 1 109.50144 31.80032V289.3056q-46.20288-17.69984-114.29888-17.69984-81.31072 0-130.65216 35.84t-49.35168 100.6592q0 88.20224 108.9024 134.4 69.2992 28.8 85.504 45.60384a50.98496 50.98496 0 0 1 16.19968 35.69664 41.92256 41.92256 0 0 1-20.39808 35.84q-20.40832 13.95712-60.9024 13.952a194.31424 194.31424 0 0 1-127.488-46.49984v99.29728q50.9952 25.8048 130.80064 25.79968 87.30112 0 134.69696-35.0976t47.40096-102.00064a123.392 123.392 0 0 0-25.94816-78.60224q-25.94816-32.99328-95.232-62.69952-59.10528-25.79968-74.09664-40.96a46.336 46.336 0 0 1-15.0016-33.152q-0.03584-22.4768 21.8624-35.82464z" fill="#37BEF0" p-id="11832"></path></svg>