<svg xmlns="http://www.w3.org/2000/svg" viewBox=" 32 32" width="200" height="200"><path d="M0 0h200v200H0V0z" fill="#2F1648"/><path d="M145.125 123.313C148 124 148 124 149 125c.072 2.02.084 4.042.063 6.063l-.028 3.347L149 137l1.793-.438 2.394-.562 2.356-.563c2.537-.451 4.886-.51 7.457-.437-.582 2.646-1.165 5.292-1.75 7.938l-.477 2.17c-1.84 8.316-3.812 16.603-5.773 24.892-19.574 3.044-39.153 6.061-58.747 8.974-1.783.266-3.566.534-5.35.804-2.507.379-5.015.75-7.524 1.12l-2.218.34c-4.767.692-9.343.857-14.161.762 1.167-7.436 2.826-14.744 4.563-22.063l.672-2.85.644-2.685.58-2.422C74 150 74 150 75 148c2.748-.757 2.748-.757 6.441-1.457l2.02-.384c7.364-1.368 14.769-2.474 22.185-3.522 2.315-.328 4.628-.667 6.942-1.006 1.5-.215 3.001-.43 4.502-.643l2.052-.303c4.673-.648 9.155-.768 13.858-.685l.297-2.012c.904-5.341 1.677-9.084 5.703-12.988 3-2 3-2 6.125-1.688z" fill="#D498FD"/><path d="M164 71c2.38 2.87 5 6.17 5 10l-2.313.813C164.095 82.957 162.7 83.763 161 86v3l1.813-2.938C165 83 165 83 168 82c2.31-.095 4.625-.13 6.938-.125l3.714-.008c2.676.106 4.817.334 7.348 1.133v5l-16 1v6l3.176.516c1.379.244 2.758.488 4.137.734l2.091.332c3.073.564 5.205 1.063 7.545 3.188 1.27 2.696 1.518 4.688 1.551 7.668l.094 2.808c-.878 4.07-2.166 5.386-5.594 7.754-3.627.596-7.15.472-10.813.313l-2.966-.069c-2.409-.059-4.814-.14-7.221-.244v-6l18-1v-6l-2.414-.297c-6.213-.877-10.724-1.651-15.586-5.703v3c2.918 1.945 4.625 2.453 8 3v5l-8 1-1 9 5 1v6c-3.62 1.316-6.096 2-10 2l-.621-1.68-.816-2.195-.81-2.18c-.732-1.981-.732-1.981-1.753-3.945l1.5-1.063c2.23-2.88 1.7-5.407 1.5-8.937l-.813 3.375C153 116 153 116 150 118c-2.102.12-4.207.175-6.313.188-4.63.244-4.63.244-8.734 2.148-2.726 3.106-4.166 6.215-5.64 10.039-.903 2.023-.903 2.023-2.313 3.625-3.683.994-7.2 1.105-11 1 .42-5.605.916-10.72 3-16l-2.375-1.188c-3.106-2.144-3.53-3.262-4.625-6.812-.266-2.938-.266-2.938-.25-6l-.016-3.063c.277-3.056.874-5.21 2.266-7.937 2.272-1.59 4.529-2.764 7-4l-1.313-2.117L118 85.125l-1.688-2.742C115 80 115 80 115 78c3.89-1.297 7.987-1.94 12-1 2.061 1.582 3.687 3.312 5.418 5.246C136.353 86.608 140.29 87.44 146 88l1-6h7v-9c6.364-2.91 6.364-2.91 10-2z" fill="#A57AC3"/><path d="M133 17l1.652 2.973c3.86 6.918 7.76 13.803 11.848 20.59l1.103 1.83c1.978 3.276 3.97 6.544 5.963 9.81l1.266 2.084a782.195 782.195 0 002.426 3.967C160 62.774 160 62.774 160 65c-5.455 1.385-10.367 2.24-16 2l.875 1.793c3.687 7.848 3.687 7.848 3.125 12.207-2.5.875-2.5.875-6 1-4.04-2.167-7.27-4.759-9.602-8.723-2.812-2.67-3.433-2.599-7.164-2.547-1.83.126-3.658.28-5.484.457l-2.836.213c-2.308.177-4.61.378-6.914.6a804.91 804.91 0 01-2.5-4.375l-1.406-2.46C105 63 105 63 105 61a264.271 264.271 0 015-3c1.433-2.866 1.306-4.813 1-8-2.496-5.558-6.19-7.57-11.477-10.074-2.653-1.123-2.653-1.123-6.21-1.051-5.033-1.33-6.439-4.898-9.028-9.21C83 27 83 27 83 24l3.13-.427c3.883-.53 7.765-1.065 11.647-1.6 1.67-.23 3.341-.458 5.012-.686 12.625-1.72 12.625-1.72 25.169-3.942C130 17 130 17 133 17z" fill="#D397FC"/><path d="M76 26c1.764 2.11 2.921 3.807 4.188 6.188l.998 1.751c1.487 2.617 2.903 5.245 4.22 7.952 1.42 2.35 1.42 2.35 4.082 2.675.932 0 1.864-.002 2.825-.004 5.655.248 8.643 1.394 12.687 5.438.04 1.666.043 3.334 0 5-3.544 1.62-6.127 2.104-10 2 1.663 2.898 3.331 5.793 5 8.688l1.501 2.613c2.276 3.944 4.565 7.86 7.046 11.68l1.137 1.76a456.517 456.517 0 003.05 4.595C114 89 114 89 113.828 91.726 113 94 113 94 111 96h-4l-.875-2.438c-.858-2.695-.858-2.695-3.125-3.562-1.87-.228-3.747-.41-5.625-.563l-3.04-.253L92 89l-.184-2.152-.254-2.785c-.08-.917-.162-1.834-.246-2.778C91.24 79.038 91.24 79.038 90 78c-3.336-.143-6.66-.042-10 0v11c-3.588-3.239-5.962-6.925-8.375-11.063l-1.094-1.833c-2.219-3.752-4.328-7.555-6.402-11.39-3.136-5.779-6.454-11.44-9.817-17.089l-1.72-2.902c-3.094-5.229-3.094-5.229-6.275-10.405C45 32 45 32 45 30c4.04-.674 8.083-1.338 12.125-2l3.46-.578 3.36-.547 3.079-.508c3.068-.378 5.891-.614 8.976-.367z" fill="#D297FB"/><path d="M127 77c2.061 1.582 3.687 3.312 5.418 5.246C136.41 86.672 140.274 87.264 146 88c.196 3.812.38 7.625.563 11.438l.17 3.298.146 3.135.143 2.904C147 111 147 111 146 112c-2 .04-4 .043-6 0l.313 2.813L140 118a258.928 258.928 0 01-5 3c-2.702 3.449-5.305 7.112-6.824 11.238C127 134 127 134 124.398 134.61l-3.023.141-3.04.172L116 135c.42-5.605.916-10.72 3-16l-2.375-1.188c-3.106-2.144-3.53-3.262-4.625-6.812-.266-2.938-.266-2.938-.25-6l-.016-3.063c.277-3.056.874-5.21 2.266-7.937 2.272-1.59 4.529-2.764 7-4l-1.313-2.117L118 85.125l-1.688-2.742C115 80 115 80 115 78c3.89-1.297 7.987-1.94 12-1z" fill="#493C53"/><path d="M43 42c3.332 3.044 5.437 6.168 7.645 10.094l1.008 1.78c1.06 1.872 2.11 3.749 3.16 5.626 1.037 1.84 2.076 3.68 3.115 5.52.684 1.212 1.366 2.426 2.047 3.64a357.794 357.794 0 005.097 8.817l1.94 3.242 1.745 2.873C70 86 70 86 70 89l-5 1v19h-4V90l-11 1v22h-2c-3.656-4.359-3.433-8.609-3-14 .304-1.672.631-3.34 1-5l-.125-2.563c.157-3.059 1.27-4.062 3.125-6.437a91.006 91.006 0 001-5l-2.52.14-3.292.11-3.27.14C38 80 38 80 36.051 78.36c-2.08-4.67.372-10.29 1.578-15.07l.947-3.77.987-3.895.998-3.965c.81-3.22 1.624-6.44 2.439-9.66z" fill="#D096F9"/><path d="M77 100c4 4 4 4 4.39 7.89a157.335 157.335 0 01-.14 4.36l-.055 2.258A339.235 339.235 0 0181 120c3.605-.052 7.208-.147 10.813-.25l3.103-.043 2.979-.098 2.745-.063c3.054-.706 3.668-2.004 5.36-4.546h2l1-5c3.257 5.211 3.427 10.022 2.168 15.855-.966 3.743-2.046 7.447-3.168 11.145l-1.972.26c-2.947.39-5.894.783-8.84 1.178l-3.104.408-2.979.4-2.745.365c-2.502.349-2.502.349-5.36 1.389-3.147.59-5.873.764-9 0-2.551-2.367-3.953-5.161-5.5-8.25l-1.297-2.355c-1.905-3.527-3.222-6.47-4.203-10.395h14v-20z" fill="#D297FA"/><path d="M29 107c3.875 1.719 3.875 1.719 5 4.25l1 2.75c2.59 4.554 4.14 6.264 9 8l2.813 2.688c2.809 2.511 2.809 2.511 5.248 2.32l2.138-.363L58 126c1.658 2.534 3.302 5.076 4.938 7.625l1.42 2.16c3.453 5.417 5.237 9.225 3.935 15.766l-1.106 3.762c-.377 1.32-.754 2.64-1.128 3.96L65 163c-.719 2.992-1.366 5.988-2 9-2.8-2.498-4.449-5.271-6.293-8.523l-1.898-3.326-.989-1.746c-1.685-2.977-3.386-5.945-5.086-8.913l-1.966-3.434a360.62 360.62 0 00-6.206-10.308l-1.777-2.875a554.137 554.137 0 00-2.883-4.605C27.83 115.476 27.83 115.476 29 107z" fill="#D196FA"/><path d="M83 80h6v14l5-3c2.352-.215 2.352-.215 4.625.063l2.29.222c2.942 1.009 3.68 1.927 5.085 4.715.267 2.92.374 5.59.313 8.5l.01 2.3c-.069 7.078-.069 7.078-2.323 10.2-2.478 1.239-4.237 1.167-7 1.188l-2.688.042C92 118 92 118 90 116l-1 2h-6V80z" fill="#F9F9FA"/><path d="M19 82h7v15h5l.773-2.168C33.923 89.867 37.007 85.652 41 82c3.096-.866 4.768-.577 8 0l-12 18 2.117 2.922 2.758 3.828 1.395 1.922c2.167 3.015 4.229 5.911 5.73 9.328-3.232.577-4.904.866-8 0-4.62-4.226-7.9-9.112-10-15h-5v15h-7V82z" fill="#F9F8F9"/><path d="M174.938 81.875l3.714-.008c2.676.106 4.817.334 7.348 1.133v5l-16 1v6l3.176.516c1.379.244 2.758.488 4.137.734l2.091.332c3.073.564 5.205 1.063 7.545 3.188 1.27 2.696 1.518 4.688 1.551 7.668l.094 2.808c-.878 4.07-2.166 5.386-5.594 7.754-3.627.596-7.15.472-10.813.313l-2.966-.069c-2.409-.059-4.814-.14-7.221-.244v-6l18-1v-6l-2.414-.297c-12.17-1.717-12.17-1.717-15.586-5.703-.808-4.933-1.23-9.888 1.348-14.313 3.299-3.369 7.144-2.821 11.59-2.812z" fill="#F6F6F6"/><path d="M130.938 91.875C133 93 133 93 135 95c.278 4.012.086 7.974 0 12h-16l2 5 13 1v5c-2.751.108-5.498.187-8.25.25l-2.355.102c-5.783.098-5.783.098-8.88-2.18-2.551-3.657-2.675-6.7-2.703-11.047l-.042-3.117c.32-4.188 1.104-7.019 4.293-9.82 4.966-2.008 9.774-1.832 14.874-.313z" fill="#F7F7F7"/><path d="M52 92h6l1 20 8-1 1-19h7v26h-6v-3h-2v2c-2.444 1.222-4.21 1.236-6.938 1.313l-2.652.113C55 118 55 118 53.368 116.299c-1.635-2.747-1.716-4.327-1.661-7.502l.03-2.969.076-3.078.04-3.125c.036-2.542.085-5.083.147-7.625z" fill="#FAFAFA"/><path d="M127 77c1.976 1.567 3.536 3.29 5.203 5.18 3.53 3.575 8.102 5.255 12.797 6.82v20l-8 3-2-1 1-3h2a712.139 712.139 0 00-.375-6.188c-.07-1.148-.14-2.297-.21-3.48-.39-3.132-1.096-5.485-2.415-8.332l-2.852.098c-10.01-.094-10.01-.094-13.414-3.098C115 81.344 115 81.344 115 78c3.89-1.297 7.986-1.937 12-1z" fill="#D095F9"/><path d="M86 76.813l2.125-.043C90 77 90 77 92 79c.195 2.383.195 2.383.125 5.125l-.055 2.758L92 89l2.3-.105 3.013-.082 2.988-.106C103 89 103 89 104.855 90.512L106 92l-2.45-.07-3.237-.055-3.2-.07c-3.526.058-3.526.058-8.113 2.195V80h-6v38h6l1-3 2 2c2.371.281 2.371.281 5 .188l2.688-.02c2.338-.022 2.338-.022 4.312-1.168 1.156-3.467 1.328-6.541 1.563-10.188l.253-3.855L106 99l2 3h3l.148 1.828.227 2.422.21 2.39c.305 2.393.305 2.393 1.478 4.485 1.286 2.572.687 4.174-.063 6.875a56.54 56.54 0 01-4-7l-1 2h-2l-.938 1.938C104 119 104 119 103 120a83.431 83.431 0 01-4.91.098l-2.998-.01-3.154-.026-3.167-.013c-2.59-.012-5.18-.028-7.771-.049.01-.868.02-1.736.032-2.63.034-3.217.059-6.434.078-9.65.01-1.393.024-2.786.04-4.179.025-2 .035-4.001.045-6.002l.032-3.65c.078-3.017.078-3.017-2.227-4.889-.047-2.566-.047-2.566.25-5.563l.266-3.003L80 78c2.229-1.114 3.53-1.165 6-1.188z" fill="#766184"/><path d="M147 83h7c.1 4.342.172 8.683.22 13.025.02 1.476.047 2.953.082 4.429.048 2.125.071 4.249.089 6.374l.063 3.872c-.454 3.3-.454 3.3-2.317 5.724-2.668 1.968-4.112 1.998-7.387 1.826l-2.703-.11L140 118v-6l6-1 1-28z" fill="#F7F7F7"/><path d="M70 87l.813 1.938C71.886 91.33 71.886 91.33 75 92h-7l.016 1.728c.02 2.57.034 5.14.047 7.71l.025 2.72.01 2.588.016 2.396C68 111 68 111 67 112c-2.67.141-5.324.042-8 0-1.148-2.297-1.116-3.583-1.098-6.133l.01-2.441.026-2.551.013-2.574c.012-2.1.03-4.2.049-6.301h-6c.14 3.521.288 7.042.438 10.563l.119 3.001c.225 5.212.584 10.29 1.443 15.436l-4-1-2-7h2V91c2-1 2-1 11-1v19h4V90l5-1v-2z" fill="#6A5A76"/><path d="M38 80h12c-.75 6.75-.75 6.75-3 9-.205 1.915-.205 1.915-.063 4 .161 3.803.161 3.803-.937 6-.823 6.624.396 10.482 4 16v2c-4.005-1.335-4.736-3.233-7-6.75l-2.063-3.172A443.107 443.107 0 0136 99l12-16-9-1-1-2z" fill="#2A1F34"/><path d="M169 90l1 4 2.633-.14c10.59-.332 10.59-.332 14.054 1.89 2.911 2.832 4.148 4.812 4.614 8.871.04 9.692.04 9.692-3.301 13.379-4.344 3.282-8.068 3.523-13.313 3.688l-2.244.103c-1.814.082-3.628.147-5.443.209v-3h-5v-1l1.864-.028c2.796-.054 5.59-.138 8.386-.222l2.934-.043c5.534-.147 5.534-.147 10.464-2.406 1.663-2.831 1.825-4.594 1.727-7.864l-.04-2.878c-.175-2.797-.175-2.797-2.335-5.559a77.569 77.569 0 00-7.563-1.625c-7.335-1.273-7.335-1.273-8.437-2.375a99.984 99.984 0 010-5z" fill="#18111F"/><path d="M118 121h15l-2 5-.684 2.203c-.868 2.357-1.599 3.946-3.316 5.797-3.683 1-7.198 1.105-11 1 .142-1.584.289-3.167.438-4.75.08-.882.162-1.763.246-2.672C117 125 117 125 118 121z" fill="#CE94F6"/><path d="M95 96.75c3 .25 3 .25 5 2.25.3 2.496.3 2.496.313 5.438l.05 2.933C100 110 100 110 98.641 111.828c-2.307 1.648-3.874 1.527-6.641 1.172-2-2-2-2-2.266-4.75l.016-3.25-.016-3.25c.385-3.98 1.313-4.67 5.266-5z" fill="#251139"/><path d="M164 71c2.38 2.87 5 6.17 5 10l-2.188.75c-3.057 1.359-5.253 3.117-7.812 5.25h-1l-.313-2.813c-.38-3.163-.38-3.163-2.25-4.75C154 78 154 78 153.813 75.314L154 73c6.364-2.91 6.364-2.91 10-2z" fill="#C88FEF"/><path d="M161 97l1.875 1.875c3.632 2.47 6.477 2.975 10.742 3.688 2.637.484 4.956 1.304 7.383 2.437.043 2 .04 4 0 6-1 1-1 1-3.504 1.098l-3.059-.035-3.066-.028L169 112l1-7-2.25.188c-3.287-.225-4.513-.785-6.75-3.188-.25-2.688-.25-2.688 0-5z" fill="#190B26"/><path d="M50 81l2 3c-.875 2.688-.875 2.688-2 5h9v1l-9 1v22h-2c-3.656-4.359-3.433-8.609-3-14 .304-1.672.631-3.34 1-5l-.125-2.563C46.032 88.385 47.113 87.34 49 85c.705-2.147.705-2.147 1-4z" fill="#BE87E5"/><path d="M106 99l2 3h3l.148 1.828.227 2.422c.07.789.14 1.578.21 2.39.305 2.393.305 2.393 1.478 4.485 1.286 2.572.687 4.174-.063 6.875a56.54 56.54 0 01-4-7l-1 2h-2l-.938 1.938C104 119 104 119 103 120c-7.006.49-14.038-.259-21-1v-1h7l1-3 2 2c2.371.281 2.371.281 5 .188l2.688-.02c2.338-.022 2.338-.022 4.312-1.168 1.156-3.467 1.328-6.541 1.563-10.188l.253-3.855L106 99z" fill="#7A5991"/><path d="M158 115l.625 1.875c1.923 2.972 4.04 3.255 7.375 4.125v6c-3.62 1.316-6.096 2-10 2l-.621-1.68-.816-2.195-.81-2.18c-.732-1.981-.732-1.981-1.753-3.945l6-4z" fill="#D095F8"/><path d="M26 103h5a55.004 55.004 0 015.188 6.75l1.326 1.922c2.055 3.013 3.98 5.995 5.486 9.328-2.775-.08-4.467-.44-6.41-2.484-1.846-2.518-3.376-4.617-4.106-7.684L32 109l-2-1-.313 3.313C29 115 29 115 26 118v-15z" fill="#574066"/><path d="M142 88h4c.196 3.812.38 7.625.563 11.438l.17 3.298.146 3.135.143 2.904C147 111 147 111 146 112c-2 .04-4 .043-6 0l.313 2.813L140 118c-2.375 1.813-2.375 1.813-5 3l-2 1a160.508 160.508 0 01-7.125-.438l-3.883-.308L119 121v-1l3.246-.184 4.192-.254 2.142-.119c3.507.08 3.507.08 6.42-1.443.04-2.333.042-4.667 0-7l9-2 1-20-3-1z" fill="#705185"/><path d="M169 79c2.625-.054 5.25-.094 7.875-.125l2.262-.05c1.955-.018 3.91.072 5.863.175l2 2c-2.335 2.335-8.961 1.41-12.299 1.518l-2.408.103-2.202.076c-2.388.346-4.028 1.067-6.091 2.303-2.346 3.333-2.541 7.025-3 11h-1c-.78-8.918-.78-8.918 2.25-13.125C165 81 165 81 169 81v-2z" fill="#140A1E"/><path d="M143 89h2v20l-8 3-2-1 1-3h2l-1-15 2 1v15l4-1V89z" fill="#BE89E4"/><path d="M77 100c4 4 4 4 4.39 7.89a157.335 157.335 0 01-.14 4.36l-.055 2.258A339.235 339.235 0 0181 120h-4v-20z" fill="#AC7BCE"/><path d="M158 101l12 4v4l-12 1v-9z" fill="#CD93F5"/><path d="M109 110c2 3.75 2 3.75 2 6a791.206 791.206 0 01-5 3l-2 3c-2.247.34-2.247.34-5.008.293l-2.988-.03c-1.033-.024-2.065-.05-3.129-.076l-3.152-.04A758.32 758.32 0 0182 122l-1-2 1.972-.028c2.948-.054 5.894-.138 8.84-.222l3.104-.043 2.979-.098 2.745-.063c3.054-.706 3.668-2.004 5.36-4.546h2l1-5z" fill="#B280D5"/><path d="M157 82v31c-3.214-4.285-3.367-5.035-3.293-10.078l.03-3.516c.024-1.206.05-2.413.076-3.656l.04-3.703c.036-3.016.085-6.031.147-9.047h-7v-1c6.625-1.125 6.625-1.125 10 0z" fill="#897696"/><path d="M121 89c1.915-.108 3.833-.186 5.75-.25l3.234-.14c3.69.477 4.742 1.521 7.016 4.39 1.442 2.884 1.094 5.417 1.063 8.625l-.028 3.602L138 108l-3-1-.148-2.555-.227-3.32c-.07-1.09-.14-2.181-.21-3.305-.148-2.95-.148-2.95-2.415-4.82-2.069-.643-2.069-.643-4-1v-2h-7v-1z" fill="#705782"/><path d="M70 87l.813 1.938C71.886 91.33 71.886 91.33 75 92h-7l-.184 3.43-.254 4.445-.119 2.262c-.33 5.636-.33 5.636-1.443 7.863h-5l4-1V90l5-1v-2z" fill="#A073C0"/><path d="M50 81l2 3c-.875 2.688-.875 2.688-2 5h9v1l-9 1v22h-2V92h-2c.783-3.916 2.392-7.364 4-11z" fill="#A173C1"/><path d="M102 91l4 1 1 4 5 1v16h-1v-11h-3v7h-1l-.332-2.668-.48-3.52-.458-3.48c-.734-3.35-1.8-5.525-3.73-8.332z" fill="#271C31"/><path d="M121.813 96.867l2.187.008 2.188-.008C128 97 128 97 129 98v5h-10c0-5.927 0-5.927 2.813-6.133z" fill="#5D4F66"/><path d="M67 91h1c.029 3.312.047 6.625.063 9.938l.025 2.865.01 2.724.016 2.524C68 111 68 111 67 112h-8V92h1l1 17 5 1 1-19z" fill="#34263E"/><path d="M73 90l4 1-1 28H63l4-2v-2h2v3h6V91l-2-1z" fill="#28202E"/><path d="M148 79h6v3h-7v27h-1l-1-27 3-1v-2z" fill="#1E1229"/><path d="M188 82h1c.125 6.75.125 6.75-1 9-2.836.555-2.836.555-6.375.875l-3.523.367C175 92 175 92 173.086 90.008L172 88c1.75-.027 3.5-.046 5.25-.063l2.953-.035c2.455.086 4.459.39 6.797 1.098l-.063-2.938C187 83 187 83 188 82z" fill="#100719"/><path d="M157 106l1 4 3-1a81.355 81.355 0 014.688-.063l2.449.028L170 109v1l-8 1-1 9c-2-1-2-1-3-4l-3 2 2-12z" fill="#B380D6"/><path d="M44 89c1 4 1 4-.438 6.438L42 98c-.252 2.71-.252 2.71 0 5h-4l-2-4 8-10z" fill="#281C33"/><path d="M136 99h1v9h-15l1 3 7 1v1c-1.458.054-2.916.093-4.375.125l-2.46.07C121 113 121 113 119 111v-4h17v-8z" fill="#261D2D"/><path d="M155 83h1c.05 4.645.086 9.29.11 13.934.01 1.58.024 3.16.04 4.74.025 2.272.036 4.543.045 6.814l.032 2.14c0 3.694-.12 5.211-2.227 8.372l-3-1 2-1c1.298-7.085 1.322-14.316 1.563-21.5l.13-3.648c.106-2.95.208-5.901.307-8.852z" fill="#443251"/><path d="M29 82h1v6h2l1-3c2 1 2 1 2.875 2.75C36 90 36 90 34.187 92.75L32 95h-2c-1.322-2.645-1.097-4.678-1.063-7.625l.028-3.04L29 82z" fill="#361F4D"/><path d="M38 80h12c-.75 6.75-.75 6.75-3 9a88.982 88.982 0 00-2 4c-.75-2.188-.75-2.188-1-5 1.938-2.813 1.938-2.813 4-5l-1.934-.148-2.504-.227c-.823-.07-1.647-.14-2.496-.21L39 82l-1-2z" fill="#574067"/><path d="M95.063 103.938L98 104l-1 7-5-1a88.406 88.406 0 01-1-5c1-1 1-1 4.063-1.063z" fill="#A777C9"/><path d="M44 93l3 1-2 12c-2.063-2.188-2.063-2.188-4-5 .17-3.553 1-5 3-8z" fill="#381A56"/><path d="M122 108h14l-1 3h-13v-3z" fill="#8660A1"/><path d="M89 115l3 2c2.745.242 2.745.242 5.688.125l3.011-.055L103 117v3c-7.066.138-13.974-.252-21-1v-1h7v-3z" fill="#4B3D55"/><path d="M95.063 96.813C98 97 98 97 99 98c.04 1.666.043 3.334 0 5l-2-3-5 1v11l-2-1a531.951 531.951 0 01-.125-5.875l-.07-3.305c.282-4.082 1.208-4.76 5.257-5.007z" fill="#1C1622"/><path d="M137 93l2 1v15h5c-2.623 1.748-3.995 2.515-7 3l-2-1 1-3h2l-1-15z" fill="#B783DB"/><path d="M138 118h12l-1 3c-1.458.027-2.917.046-4.375.063l-2.46.035C140 121 140 121 138 120v-2z" fill="#0F0619"/><path d="M161 97l2.188 1.875c2.596 1.962 4.759 3.078 7.812 4.125l-1 4v-2l-2.25.188c-3.287-.225-4.513-.785-6.75-3.188-.25-2.688-.25-2.688 0-5z" fill="#554065"/><path d="M99 99h1c.081 1.77.14 3.541.188 5.313l.105 2.988C100 110 100 110 98.656 111.844 96.39 113.426 94.697 113.219 92 113v-2h5l2-12z" fill="#564D5D"/><path d="M26 103h5l-1 3-2-1 .063 3.688c.005 3.232-.275 6.161-1.063 9.312h-1v-15z" fill="#463E4B"/><path d="M106 99h1l1 16h-2l-1 3-2-1 .96-1.547c1.38-3.255 1.47-6.181 1.665-9.703l.227-3.828L106 99z" fill="#5B5262"/><path d="M171 103l9 1v5l-1-2c-1.895-.465-1.895-.465-4.063-.625L171 106v-3z" fill="#130C19"/><path d="M120 97h8l-1 2-3-1v4h-5l1-5z" fill="#150F1B"/><path d="M67 91h1v20l-2 1c-2.125-.938-2.125-.938-4-2h4l1-19z" fill="#3D2E49"/><path d="M167.313 81.188L169 82l-2.375 1.25c-2.815 1.877-3.577 2.605-4.625 5.75-.387 2.325-.73 4.659-1 7h-1c-.778-8.898-.778-8.898 2.25-13.188C165 81 165 81 167.313 81.189z" fill="#463651"/><path d="M48 113l5 1 1 7-4-1-2-7z" fill="#735588"/><path d="M108 96l4 1v16h-1v-11h-2l-1-6z" fill="#21142E"/><path d="M90 80h1v10h10v1l-11 2V80z" fill="#35283E"/><path d="M49 91v16h-1l-.684-6.055C47.087 98.926 47.087 98.926 46 97a99.797 99.797 0 010-5c2-1 2-1 3-1z" fill="#C88FEF"/><path d="M170 88l5 2-1 4h-4a88.406 88.406 0 01-1-5l1-1z" fill="#6C4F80"/><path d="M180 105h1v6c-3.694 1.231-6.206.644-10 0v-1l3.375-.25c3.683-.329 3.683-.329 5.063-2.813L180 105z" fill="#2B2531"/><path d="M116 89l12 1v1l-13 2 1-4z" fill="#21152B"/><path d="M113 115l7 3-1 3-6-1v-5z" fill="#160C20"/><path d="M109 110c2 3.75 2 3.75 2 6a125.024 125.024 0 01-6 4l-2-1c1.375-2 1.375-2 3-4h2l1-5z" fill="#A375C2"/><path d="M123 111h12l1 2c-.938 2.125-.938 2.125-2 4v-4l-11-1v-1z" fill="#604F6C"/><path d="M44 89c.75 1.75.75 1.75 1 4-1.938 2.25-1.938 2.25-4 4l-1-3c1.938-2.688 1.938-2.688 4-5z" fill="#1B1125"/><path d="M33 85l2 1c.625 2.063.625 2.063 1 4l-5 2c.875-5.875.875-5.875 2-7z" fill="#7D5996"/><path d="M70 87l.813 1.938C71.886 91.33 71.886 91.33 75 92h-7l-1-3h3v-2z" fill="#79608B"/><path d="M36 115c4.677 1.477 4.677 1.477 6.313 4.125L43 121c-2.375-.188-2.375-.188-5-1-1.313-2.563-1.313-2.563-2-5z" fill="#7B5B92"/><path d="M89 115l5 4H82v-1h7v-3z" fill="#271F2D"/><path d="M188 81l-1 8-4-1h3v-5l-4-1c2.076-.553 3.844-1 6-1z" fill="#4C494F"/></svg>