<svg width="600" height="600" viewBox="0 0 600 600" xmlns="http://www.w3.org/2000/svg"><path fill-rule="evenodd" fill="rgb(65, 27, 103)" d="m300,0c165.685,0 300,134.315 300,300c0,165.685 -134.315,300 -300,300c-165.685,0 -300,-134.315 -300,-300c0,-165.685 134.315,-300 300,-300z" id="svg_2"/><path id="svg_1" d="m241,47.5l165,-23l95,158l-58,8c14.065,22.92 14.075,30.205 15,37c0.353,12.163 -5.842,10.614 -10.43,11.131c-5.86,0.659 -14.518,-4.641 -19.385,-7.533c-13.384,-7.956 -30.185,-33.598 -30.185,-33.598l-63,9l-21,-34c24.129,-12.769 23.438,-22.994 23.38,-33.196c-0.099,-17.396 -16.716,-31.389 -27.474,-37.412c-17.617,-9.863 -41.514,-8.738 -41.514,-8.738l-27.392,-45.654zm107,179c0,0 16.655,-2.437 39.35,-5.759c38.386,60.03 111.464,49.469 87.696,-12.833c21.462,-3.141 36.954,-5.408 36.954,-5.408l35,64l-31,126l-31,5c-2.24,-21.276 -6.222,-25.198 -11.653,-31.505c-9.849,-11.44 -22.5,-11.597 -30.784,-11.227c-8.06,0.361 -15.256,4.264 -21.142,7.534c-21.519,11.956 -31.201,49.027 -31.201,49.027l-41.22,6.171l33,-133l-34,-58zm-162,349l294,-42l30,-118c0,0 -24.547,3.424 -49,7c16.863,-72.893 -48.056,-52.452 -51.828,7.747c-72.106,10.546 -193.172,28.253 -193.172,28.253l-30,117zm-73,-510l105,-15c0,0 17.22,29.007 39,66c22.052,-2.917 37.933,1.04 46.692,7.443c6.543,4.783 12.103,10.558 12.407,15.962c0.4,7.114 -0.852,13.585 -35.86,16.31c35.808,60.82 73.761,125.285 73.761,125.285l-106,15l-135,-231zm-2,39l125,215l119,-17l-29,118l-111,17c0,0 -28.939,-46.443 -59,-97c-6.908,19.137 -9.262,25.825 -12.943,29.125c-5.887,2.979 -10.964,-5.401 -15.464,-11.563c-5.243,-7.181 -9.178,-19.485 -11.106,-31.933c-1.775,-11.464 -0.424,-26.218 6.188,-43.903c-22.218,-37.366 -39.675,-66.726 -39.675,-66.726l28,-111zm-36,142c0,0 9.443,15.686 23.052,38.293c-13.829,47.265 7.428,91.684 30.412,104.848c4.593,2.63 9.731,3.219 14.534,2.562c6.376,-0.871 11.588,-3.363 15.299,-7.333c20.997,34.879 37.703,62.63 37.703,62.63l-23,91l-120,-205l22,-87z" fill="rgb(193, 134, 230)" fill-rule="evenodd"/>
</svg>