<?xml version="1.0" encoding="UTF-8"?>
<svg id="_图层_2" data-name="图层 2" xmlns="http://www.w3.org/2000/svg" viewBox="0 0 284.67 244.2">
  <defs>
    <style>
      .cls-1 {
        stroke-width: .82px;
      }

      .cls-1, .cls-2, .cls-3, .cls-4, .cls-5, .cls-6, .cls-7 {
        fill: none;
      }

      .cls-1, .cls-2, .cls-3, .cls-4, .cls-5, .cls-7 {
        stroke-linecap: round;
        stroke-linejoin: round;
      }

      .cls-1, .cls-3, .cls-5, .cls-6 {
        stroke: #dbddf4;
      }

      .cls-8 {
        opacity: .5;
      }

      .cls-2 {
        stroke-width: 5.42px;
      }

      .cls-2, .cls-4 {
        stroke: #90a1d7;
      }

      .cls-9 {
        fill: #90a1d7;
      }

      .cls-9, .cls-10, .cls-11, .cls-12 {
        stroke-width: 0px;
      }

      .cls-4 {
        stroke-width: 5.63px;
      }

      .cls-5 {
        stroke-width: 1.53px;
      }

      .cls-6 {
        stroke-miterlimit: 10;
        stroke-width: 2px;
      }

      .cls-10 {
        fill: #a7abd6;
      }

      .cls-11 {
        fill: #dbddf4;
      }

      .cls-7 {
        stroke: #8a9dcf;
        stroke-width: 2.86px;
      }

      .cls-12 {
        fill: #8995c1;
      }
    </style>
  </defs>
  <g id="_图层_1-2" data-name="图层 1">
    <g>
      <g>
        <g>
          <rect class="cls-7" x="239.85" y="107.78" width="47.33" height="6.29" rx="2.74" ry="2.74" transform="translate(-13.86 180.28) rotate(-36.87)"/>
          <line class="cls-7" x1="279.46" y1="113.32" x2="243.54" y2="140.26"/>
          <line class="cls-7" x1="238.72" y1="143.88" x2="236.61" y2="145.46"/>
        </g>
        <g>
          <rect class="cls-7" x="18.01" y="87.26" width="6.29" height="47.33" rx="2.74" ry="2.74" transform="translate(-80.28 61.3) rotate(-53.13)"/>
          <line class="cls-7" x1="5.21" y1="113.32" x2="41.13" y2="140.26"/>
          <line class="cls-7" x1="45.95" y1="143.88" x2="48.06" y2="145.46"/>
        </g>
      </g>
      <path class="cls-6" d="m271.32,139.14l-7.94-44.85c-.52-2.96-2.49-5.33-5.1-6.46.93-2.22,1.4-4.64,1.35-7.12-.13-5.69-3.05-10.96-7.8-14.11L161.19,6.68c-5.62-3.72-12.14-5.68-18.86-5.68s-13.24,1.96-18.86,5.68l-90.63,59.93c-4.75,3.14-7.66,8.41-7.8,14.11-.06,2.48.42,4.9,1.35,7.12-2.61,1.13-4.58,3.51-5.1,6.46l-7.94,44.85c-2.08,11.73,2.92,23.67,12.72,30.43l98.94,68.26c5.09,3.51,11.08,5.37,17.33,5.37s12.24-1.86,17.33-5.37l98.93-68.26c9.8-6.76,14.8-18.71,12.72-30.43Z"/>
      <g>
        <g>
          <path class="cls-10" d="m96.2,149.58c1.31,1.04,2.09,2.53,2.33,4.47.31,2.52-.32,4.54-1.88,6.05-1.56,1.51-3.82,2.45-6.77,2.81-.66.08-1.34.13-2.04.16l.61,5.23c.02.18-.03.35-.17.51-.14.15-.33.24-.58.27l-3.8.56c-.27.03-.46.01-.57-.06-.11-.07-.18-.19-.2-.35l-2.42-19.8c-.04-.33.22-.53.77-.59l3.95-.39c.31-.04.55.05.72.26.89-.36,1.84-.6,2.85-.72.68-.08,1.39-.11,2.14-.08,2.07.08,3.76.64,5.07,1.67Zm-4.52,3.46c-.72-.36-1.58-.48-2.59-.35-.8.1-1.58.33-2.35.69l.6,5.14c.82-.06,1.39-.11,1.7-.15,1.5-.18,2.55-.53,3.17-1.03.61-.5.85-1.31.72-2.41-.11-.9-.53-1.53-1.25-1.89Z"/>
          <path class="cls-12" d="m110.52,167.2c-.18.22-.39.33-.64.33l-8.64.03c-.25,0-.47-.1-.67-.29-.2-.2-.29-.44-.29-.73l-.06-2.48c0-.31.09-.57.28-.79.19-.22.4-.33.65-.33l1.61-.06v-11.25h-1.39c-.25,0-.47-.1-.67-.31-.2-.21-.29-.44-.29-.71l-.06-2.51c0-.31.09-.57.28-.79s.4-.33.65-.33l8.33-.09c.23,0,.43.11.62.34.19.23.29.48.31.74l.09,2.57c.02.29-.06.55-.23.78-.18.23-.39.34-.63.34h-1.55l-.03,11.06,1.55-.03c.23,0,.43.1.62.31.19.21.29.45.31.74l.09,2.66c.02.31-.06.57-.23.79Z"/>
          <path class="cls-10" d="m113.85,162.73c-1.09-1.54-1.64-3.45-1.64-5.75,0-.91.09-1.89.28-2.94.37-1.96,1.23-3.69,2.59-5.17,1.35-1.49,2.92-2.44,4.69-2.85,1.14-.29,2.27-.43,3.41-.43,1.43,0,2.74.22,3.93.65,1.2.43,2.23,1.01,3.1,1.73.17.14.29.27.37.39.08.11.12.24.12.39,0,.19-.07.39-.22.62l-1.58,2.63c-.21.35-.49.53-.84.53-.29,0-.6-.12-.93-.37-1.57-1.01-3.03-1.52-4.37-1.52-1.22,0-2.24.42-3.07,1.25-.83.84-1.37,2.04-1.64,3.61-.08.58-.12.98-.12,1.21,0,.99.22,1.86.67,2.62.44.75,1.05,1.33,1.83,1.73.77.4,1.64.6,2.59.6.78,0,1.6-.16,2.45-.46.83-.31,1.51-.64,2.04-.99.27-.14.52-.22.74-.22.1,0,.24.02.4.06.33.12.56.34.68.65l1.08,2.66c.06.12.09.27.09.43,0,.37-.12.65-.37.84-1.96,1.38-4.3,2.08-7,2.08-1.53,0-3.09-.25-4.68-.74-1.98-.62-3.52-1.7-4.62-3.24Z"/>
          <path class="cls-12" d="m148.7,163.31c0,.29-.15.52-.46.68l-3.22,1.67c-.21.12-.41.19-.62.19-.19,0-.34-.1-.46-.31l-4.34-8.02-1.12,1.18-.03,6.2c0,.19-.08.34-.25.46-.17.12-.36.19-.59.19l-3.93.09c-.43,0-.65-.16-.65-.46l.09-19.64c0-.39.26-.59.77-.59l3.93.09c.23,0,.4.07.53.22.12.14.19.32.19.53l-.03,6.1,6.01-6.6c.12-.12.27-.19.43-.19.25,0,.47.1.68.31l2.39,2.26c.21.19.31.39.31.62,0,.17-.05.3-.15.4l-4.83,4.96,5.27,9.32c.06.08.09.2.09.34Z"/>
          <path class="cls-10" d="m172.71,164.42c-.1.19-.28.32-.53.4l-3.53,1.39c-.08.04-.21.06-.37.06-.29,0-.51-.13-.65-.4l-5.58-13.26c-.08-.21-.22-.31-.4-.31-.21,0-.35.1-.43.31l-2.2,5.36,4.31-.06c.21,0,.37.08.5.25.12.17.2.37.22.62l.09,2.79c.02.23-.04.43-.19.62-.14.19-.32.27-.53.25l-6.07-.4-1.58,3.84c-.1.27-.34.4-.71.4-.21,0-.36-.02-.46-.06l-3.47-.93c-.37-.12-.56-.32-.56-.59,0-.12.02-.23.06-.31l7.53-18.09c.08-.16.26-.33.53-.48.27-.16.53-.23.77-.23h4.28c.58,0,.99.28,1.24.84l7.78,17.47c.08.17.07.34-.03.53Z"/>
          <path class="cls-12" d="m184.5,167.2c-.18.22-.39.33-.64.33l-8.64.03c-.25,0-.47-.1-.67-.29-.2-.2-.29-.44-.29-.73l-.06-2.48c0-.31.09-.57.28-.79.19-.22.4-.33.65-.33l1.61-.06v-11.25h-1.39c-.25,0-.47-.1-.67-.31-.2-.21-.29-.44-.29-.71l-.06-2.51c0-.31.09-.57.28-.79s.4-.33.65-.33l8.33-.09c.23,0,.43.11.62.34.19.23.29.48.31.74l.09,2.57c.02.29-.06.55-.23.78-.18.23-.39.34-.63.34h-1.55l-.03,11.06,1.55-.03c.23,0,.43.1.62.31.19.21.29.45.31.74l.09,2.66c.02.31-.06.57-.23.79Z"/>
          <path class="cls-10" d="m204.62,152.94c.68,1.44.95,3.18.79,5.22-.02.29-.08.76-.17,1.42-.47,3.01-1.53,5.27-3.17,6.79-1.64,1.51-3.69,2.29-6.14,2.34-.62,0-1.12-.02-1.49-.05-.93-.07-1.82-.21-2.67-.42-.05.14-.15.25-.29.34s-.3.12-.49.1l-3.74-.21c-.45-.03-.67-.22-.64-.54l1.5-20.3c.02-.33.3-.47.84-.43l3.88.41c.21.02.38.1.51.26.75-.07,1.55-.07,2.39,0,1.07.08,2.1.25,3.1.52.99.27,1.85.63,2.56,1.08,1.47.9,2.54,2.06,3.22,3.5Zm-6.18,9.06c.73-1.03,1.13-2.41,1.19-4.12.06-1.67-.39-2.93-1.37-3.77-.97-.84-2.17-1.31-3.59-1.42-.49-.04-1.02-.02-1.59.04l-.89,10.74c.67.19,1.26.31,1.78.35.45.03.96.02,1.52-.04,1.23-.16,2.21-.75,2.94-1.79Z"/>
          <g>
            <path class="cls-12" d="m206.88,101.14l4.21.77c.58.1.95.66.83,1.23l-.83,3.97c-.12.55-.65.91-1.2.81l-3.96-.72c-.55-.1-.92-.62-.84-1.17l.57-4.02c.08-.58.63-.98,1.21-.87Z"/>
            <path class="cls-12" d="m205.53,111.12l3.59.53c.57.08.96.61.88,1.17l-.57,4.01c-.08.58-.63.98-1.21.87l-3.36-.61c-.53-.1-.89-.58-.85-1.11l.34-3.93c.05-.6.59-1.03,1.19-.94Z"/>
            <path class="cls-12" d="m80.09,104.76l15.11-2.84c4.48-.84,8.69,2.44,8.96,6.99l1.16,19.25c.03.57-.39,1.06-.96,1.1l-10.89.79c-.62.05-1.15-.47-1.11-1.09l.86-16c.04-.7-.61-1.23-1.28-1.06l-10.64,2.62c-.61.15-1.22-.28-1.28-.91l-.77-7.72c-.05-.54.31-1.02.84-1.12Z"/>
            <path class="cls-12" d="m118.35,85.61l-3.06,1.04c-.59.2-.9.85-.68,1.43l2.06,5.62c.21.57.85.87,1.42.66l3.4-1.25c.6-.22.89-.9.63-1.49l-2.4-5.42c-.23-.52-.83-.79-1.37-.6Z"/>
            <path class="cls-12" d="m131.57,85.42l-2.22.99c-.44.2-.7.65-.65,1.13l.57,5.32c.08.73.83,1.18,1.51.91l3.06-1.22c.53-.21.81-.78.66-1.33l-1.41-5.09c-.18-.65-.9-.99-1.52-.72Z"/>
            <path class="cls-12" d="m120.29,110.41l-5.38,2.88c-.53.28-.73.93-.47,1.46l2.69,5.53c.27.56.94.78,1.49.51l3.82-1.92c.44-.22.68-.7.59-1.18l-1.12-6.48c-.13-.74-.95-1.14-1.61-.79Z"/>
            <path class="cls-12" d="m131.56,110.71l3.04,2.44c.41.33.53.91.29,1.38l-2.3,4.37c-.35.67-1.26.8-1.78.25l-2.13-2.24c-.28-.29-.37-.71-.26-1.09l1.4-4.57c.23-.75,1.14-1.03,1.75-.54Z"/>
            <path class="cls-12" d="m135.71,120.01l-2.56,4.77c-.32.59-.04,1.32.58,1.56l5.2,2.01c.6.23,1.27-.09,1.46-.71l1.72-5.55c.19-.6-.16-1.23-.76-1.4l-4.36-1.23c-.5-.14-1.03.08-1.28.54Z"/>
            <path class="cls-12" d="m146.57,119.87l-2.87,1.13c-.52.2-.8.76-.67,1.3l1.24,4.98c.15.62.79.98,1.4.79l4.16-1.27c.66-.2.98-.96.66-1.57l-2.52-4.85c-.26-.5-.86-.73-1.39-.52Z"/>
            <path class="cls-12" d="m154.25,119.31c-.97.29-2.09.65-2.88.91-.57.19-.88.79-.72,1.36l1.42,4.87c.17.59.8.93,1.39.75l4.13-1.27c.69-.21.99-1.01.62-1.63l-2.7-4.5c-.26-.43-.78-.64-1.26-.49Z"/>
            <path class="cls-12" d="m163.01,119.1c-.34-.44-.95-.57-1.43-.29-.83.48-2.12,1.2-2.88,1.63-.36.2-.52.64-.37,1.03.5,1.26,1.57,3.98,2.19,5.48.24.58.91.85,1.48.59l4.24-1.93c.65-.29.85-1.11.42-1.68l-3.66-4.83Z"/>
            <path class="cls-12" d="m146.63,79.67l-7.68,1.59c-.65.13-1.03.8-.83,1.43l1.95,6.04c.16.51.67.83,1.21.76l7.16-.98c.64-.09,1.07-.7.93-1.33l-1.43-6.64c-.13-.59-.71-.98-1.31-.85Z"/>
            <path class="cls-12" d="m153.25,80.55l-1.26,6.59c-.12.64.33,1.25.98,1.31l6.57.64c.55.05,1.06-.31,1.19-.86l1.33-5.85c.14-.61-.25-1.21-.86-1.33l-6.65-1.37c-.61-.12-1.2.27-1.31.88Z"/>
            <path class="cls-12" d="m163.59,85.55l-26.38.74c-.6.02-1.08.51-1.08,1.11v6.25c0,.61.5,1.11,1.11,1.11h26.86c.64,0,1.15-.54,1.11-1.18l-.48-6.98c-.04-.59-.54-1.05-1.14-1.03Z"/>
            <path class="cls-12" d="m160.72,98.8l-21,.88c-.59.02-1.06.51-1.06,1.11v3.24c0,.61.5,1.11,1.11,1.11h21.35c.65,0,1.16-.55,1.1-1.2l-.34-4.12c-.05-.59-.56-1.04-1.15-1.02Z"/>
            <path class="cls-12" d="m163.89,108.43c-4.45.24-22.1,1.23-26.51,1.48-.57.03-1.02.5-1.04,1.07l-.17,5.07c-.02.63.48,1.15,1.11,1.15h27.52c.67,0,1.18-.59,1.1-1.25l-.85-6.55c-.07-.58-.57-1-1.15-.96Z"/>
            <path class="cls-12" d="m154.17,92.6l-9.11,1.06c-.58.07-1.01.58-.98,1.17l.98,15.63c.04.58.52,1.04,1.11,1.04h8.64c.63,0,1.13-.52,1.11-1.14l-.51-16.7c-.02-.65-.59-1.14-1.24-1.07Z"/>
            <path class="cls-12" d="m189.83,82.03l4.88,5.25c.39.42.37,1.08-.06,1.47l-8.33,7.67,3.93,2.89c.58.43.56,1.29-.03,1.7l-5.65,3.83c-.42.29-.99.22-1.34-.15l-7.68-8.24c-.38-.41-.37-1.04.02-1.44l12.76-13.01c.41-.42,1.1-.41,1.5.02Z"/>
            <path class="cls-12" d="m191.63,95.87l4.4,5.41c.39.48.28,1.19-.24,1.52l-11.06,7.25,7.3.36c.6.03,1.05.55.98,1.15l-.51,4.72c-.06.53-.51.94-1.05.93l-13.7-.22c-.32,0-.62-.16-.82-.42l-4.11-5.51c-.33-.45-.25-1.08.18-1.43l17.16-13.9c.45-.36,1.1-.29,1.46.15Z"/>
            <path class="cls-12" d="m189.48,119.4l-15.6.29c-.62.01-1.09.56-1.01,1.17l.8,6.04c.07.54.55.93,1.09.9l15.05-.86c.57-.03,1-.52.98-1.08l-.25-5.47c-.03-.56-.49-1-1.06-.99Z"/>
            <path class="cls-12" d="m208.45,86.2l-5.82-.63c-.54-.06-1.04.32-1.13.86l-6.43,37.15c-.1.56.28,1.1.84,1.2l6.1,1.11c.57.1,1.12-.28,1.21-.85l6.15-37.63c.1-.59-.32-1.14-.91-1.2Z"/>
            <path class="cls-12" d="m208.68,87.59l11.79.95c2.76.22,4.73,2.77,4.26,5.5l-6.12,34.9c-.11.62-.73,1-1.33.81l-7.62-2.36c-.5-.16-.81-.67-.71-1.18l5.45-28.97c.11-.6-.31-1.17-.92-1.23l-5.68-.56c-.58-.06-1-.58-.93-1.16l.71-5.8c.07-.55.56-.95,1.11-.91Z"/>
            <path class="cls-12" d="m192.48,123.37l-1.14,5.38c-.12.57.25,1.12.82,1.23l26.57,5.15c.6.12,1.16-.3,1.23-.91l.69-6.34c.06-.55-.32-1.05-.87-1.14l-26.12-4.19c-.55-.09-1.07.27-1.18.81Z"/>
            <path class="cls-12" d="m83.49,84.76c-1.9.51-6.12,1.55-8.17,2.06-.62.15-.95.81-.71,1.4l2.12,5.17c.19.46.68.72,1.17.62l7.87-1.61c.6-.12.97-.74.78-1.33l-1.79-5.62c-.17-.53-.72-.83-1.26-.69Z"/>
            <path class="cls-12" d="m73.66,99.75l-5.03,31.89c-.09.58.32,1.12.9,1.19l9.83,1.16c.58.07,1.1-.35,1.16-.93l3.52-35.25c.07-.72-.6-1.29-1.3-1.11l-8.32,2.2c-.4.11-.7.44-.76.84Z"/>
            <path class="cls-12" d="m59.89,96l1.47,6.84c.12.56.67.91,1.23.8l42.98-8.89c.6-.12.96-.73.78-1.32l-2.24-7.38c-.16-.52-.69-.83-1.22-.71l-42.2,9.44c-.56.12-.91.67-.79,1.23Z"/>
            <path class="cls-12" d="m120.56,80.71l.27,46.96c0,.61.5,1.1,1.11,1.1h7.55c.61,0,1.11-.5,1.11-1.11v-45.96c0-.56-.41-1.03-.97-1.1l-7.82-1c-.66-.08-1.25.44-1.25,1.11Z"/>
            <path class="cls-12" d="m115.68,98.25l.29,7.47c.02.59.51,1.07,1.11,1.07h15.84c.64,0,1.15-.54,1.11-1.18l-.5-7.94c-.04-.6-.54-1.06-1.14-1.04l-15.63.47c-.62.02-1.1.53-1.07,1.15Z"/>
          </g>
          <g>
            <path class="cls-3" d="m167.07,119.49c.29-.2.57-.42.81-.69.78-.89,1.14-2.07.99-3.24l-.85-6.55c-.22-1.71-1.48-3.07-3.09-3.46.23-.58.33-1.22.28-1.85l-.34-4.12c-.06-.67-.27-1.29-.61-1.83,1.08-.04,2.11-.51,2.85-1.3.77-.83,1.17-1.95,1.1-3.09l-.48-6.99c-.11-1.65-1.21-3.02-2.68-3.57.16-1-.05-2.04-.6-2.89-.59-.92-1.55-1.58-2.62-1.8l-6.65-1.37c-.27-.06-.55-.08-.83-.08-1.63,0-3.08.97-3.74,2.4-.66-1.44-2.11-2.41-3.74-2.41-.28,0-.56.03-.83.08l-7.68,1.59c-1.14.23-2.13.95-2.72,1.96-.59,1.01-.72,2.22-.36,3.33l.05.15s-.09.05-.13.08c-.43-.52-.97-.94-1.59-1.2v-.94c0-2.06-1.54-3.81-3.59-4.08l-7.82-1c-.18-.02-.35-.03-.52-.03-1.1,0-2.13.43-2.91,1.21-.78.78-1.2,1.82-1.19,2.92v1.99c-.05.02-.11.04-.17.06l-3.06,1.04c-1.04.35-1.91,1.12-2.38,2.12-.47.99-.53,2.15-.15,3.19l2.06,5.62c.05.14.11.29.18.42-.09.08-.17.16-.25.25-.75.81-1.14,1.86-1.1,2.96l.29,7.47c.07,1.7,1.14,3.11,2.63,3.68l-2.1,1.12c-1.96,1.04-2.73,3.43-1.76,5.42l2.69,5.53c.64,1.31,1.94,2.19,3.38,2.3l.02,3.8c.01,2.25,1.85,4.08,4.11,4.08h7.55c1.66,0,3.08-1,3.73-2.42l4.63,1.79c.47.18.97.27,1.48.27,1.25,0,2.38-.56,3.14-1.47.75.73,1.76,1.18,2.87,1.18.41,0,.81-.06,1.2-.18l4.16-1.27c.08-.02.14-.07.22-.09.65.42,1.41.67,2.22.67h0c.41,0,.82-.06,1.21-.18l3.86-1.19c.76,1.08,1.99,1.75,3.35,1.75.59,0,1.16-.12,1.7-.37l4.24-1.92c1.14-.52,1.98-1.52,2.28-2.73.31-1.22.05-2.49-.71-3.49l-1.99-2.63Z"/>
            <path class="cls-3" d="m226.18,88.51c-1.32-1.71-3.32-2.79-5.48-2.96l-9.15-.74s0-.01-.02-.02c-.67-.88-1.68-1.45-2.78-1.57l-5.82-.63c-.15-.02-.29-.02-.43-.02-1.97,0-3.64,1.41-3.98,3.35l-1.96,11.29-2.63-3.23c-.08-.1-.16-.19-.24-.27l2.98-2.75c.8-.73,1.26-1.73,1.3-2.81.04-1.08-.34-2.11-1.08-2.9l-4.88-5.25c-.76-.82-1.84-1.29-2.96-1.29s-2.12.43-2.88,1.21l-12.77,13.01c-1.52,1.55-1.55,4-.07,5.58l3.71,3.98-5.95,4.82c-1.69,1.37-1.99,3.81-.69,5.55l2.92,3.91c-.96.14-1.86.6-2.5,1.34-.75.87-1.09,2.02-.94,3.16l.8,6.04c.26,2,1.99,3.51,4,3.51h.15s13.63-.78,13.63-.78c.11.41.27.81.51,1.18.6.91,1.53,1.53,2.6,1.73l26.57,5.15c.25.05.51.07.77.07,2.06,0,3.79-1.55,4.01-3.6l.69-6.34c.14-1.31-.36-2.55-1.25-3.39l5.31-30.27c.37-2.13-.17-4.33-1.5-6.04Z"/>
            <path class="cls-3" d="m106.98,85.18c-.52-1.71-2.07-2.87-3.86-2.87-.3,0-.59.03-.88.1l-14.29,3.19-.34-1.07c-.54-1.68-2.08-2.81-3.85-2.81-.35,0-.71.05-1.05.14-1.91.52-6.3,1.6-8.1,2.04-1.14.28-2.1,1.04-2.64,2.09-.51,1-.58,2.17-.19,3.23l-11.75,2.63c-2.15.48-3.53,2.63-3.07,4.79l1.47,6.84c.4,1.85,2.06,3.19,3.95,3.19.27,0,.55-.03.82-.08l6.56-1.36-4.09,25.95c-.17,1.08.11,2.2.77,3.07.66.87,1.66,1.44,2.74,1.57l9.83,1.16c.16.02.32.03.48.03,2.08,0,3.81-1.56,4.02-3.64l1.67-16.72,4.91-1.21-.72,13.36c-.06,1.1.34,2.19,1.1,3,.76.8,1.83,1.26,2.93,1.26h.19s11-.8,11-.8c2.19-.16,3.87-2.07,3.74-4.27l-1.16-19.25c-.28-4.67-3.57-8.49-7.91-9.61l6.92-1.43c1.11-.23,2.08-.92,2.65-1.89.58-.97.72-2.15.39-3.23l-2.24-7.38Z"/>
          </g>
          <path class="cls-5" d="m70.15,141.51c49.89-4.8,97.96-5.06,143.81,0"/>
        </g>
        <g>
          <g>
            <path class="cls-9" d="m62.97,159.58s1.11-6.14,7.24-3.11c5.76,2.84,3.57,5.51,1.54,6.47s-3.19,1.21-4.89,2.39c-1.47,1.01-6.34.31-3.89-5.74Z"/>
            <ellipse class="cls-9" cx="58.57" cy="159" rx="2.26" ry="2.8" transform="translate(-46 25.67) rotate(-17.88)"/>
            <ellipse class="cls-9" cx="60.31" cy="152.78" rx="2.26" ry="2.8" transform="translate(-44 25.9) rotate(-17.88)"/>
            <ellipse class="cls-9" cx="65.71" cy="149.8" rx="2.26" ry="2.8" transform="translate(-57.13 41.78) rotate(-24.99)"/>
            <ellipse class="cls-9" cx="72.08" cy="152.71" rx="2.26" ry="2.8" transform="translate(-57.76 44.74) rotate(-24.99)"/>
          </g>
          <g>
            <path class="cls-9" d="m221.7,159.58s-1.11-6.14-7.24-3.11c-5.76,2.84-3.57,5.51-1.54,6.47,2.03.96,3.19,1.21,4.89,2.39,1.47,1.01,6.34.31,3.89-5.74Z"/>
            <ellipse class="cls-9" cx="226.1" cy="159" rx="2.8" ry="2.26" transform="translate(5.35 325.34) rotate(-72.12)"/>
            <ellipse class="cls-9" cx="224.36" cy="152.78" rx="2.8" ry="2.26" transform="translate(10.07 319.38) rotate(-72.12)"/>
            <ellipse class="cls-9" cx="218.96" cy="149.8" rx="2.8" ry="2.26" transform="translate(-9.32 284.98) rotate(-65.01)"/>
            <ellipse class="cls-9" cx="212.59" cy="152.71" rx="2.8" ry="2.26" transform="translate(-15.63 280.89) rotate(-65.01)"/>
          </g>
        </g>
        <path class="cls-4" d="m240.2,93.21l7.09-5.18c4.83-3.53,4.66-10.79-.33-14.09L156.33,14.02c-8.49-5.61-19.51-5.61-28,0l-90.63,59.93c-4.99,3.3-5.16,10.56-.33,14.09l7.09,5.18"/>
        <path class="cls-2" d="m254.8,95.8l7.94,44.85c1.49,8.4-2.06,16.9-9.09,21.75l-98.93,68.26c-7.45,5.14-17.31,5.14-24.76,0L31.02,162.39c-7.02-4.85-10.58-13.34-9.09-21.75l7.94-44.85"/>
        <line class="cls-2" x1="142.82" y1="189.4" x2="142.82" y2="221.06"/>
        <path class="cls-11" d="m190.13,188.37c-3.04.74-4.05,1.75-4.79,4.79-.11.47-.77.47-.89,0-.74-3.04-1.75-4.05-4.79-4.79-.47-.11-.47-.77,0-.89,3.04-.74,4.05-1.75,4.79-4.79.11-.47.77-.47.89,0,.74,3.04,1.75,4.05,4.79,4.79.47.11.47.77,0,.89Z"/>
        <path class="cls-11" d="m164.52,198c-1.41.34-1.88.81-2.22,2.22-.05.22-.36.22-.41,0-.34-1.41-.81-1.88-2.22-2.22-.22-.05-.22-.36,0-.41,1.41-.34,1.88-.81,2.22-2.22.05-.22.36-.22.41,0,.34,1.41.81,1.88,2.22,2.22.22.05.22.36,0,.41Z"/>
        <path class="cls-11" d="m236.26,118.09c-1.41.34-1.88.81-2.22,2.22-.05.22-.36.22-.41,0-.34-1.41-.81-1.88-2.22-2.22-.22-.05-.22-.36,0-.41,1.41-.34,1.88-.81,2.22-2.22.05-.22.36-.22.41,0,.34,1.41.81,1.88,2.22,2.22.22.05.22.36,0,.41Z"/>
        <path class="cls-11" d="m176.62,58.92c-1.41.34-1.88.81-2.22,2.22-.05.22-.36.22-.41,0-.34-1.41-.81-1.88-2.22-2.22-.22-.05-.22-.36,0-.41,1.41-.34,1.88-.81,2.22-2.22.05-.22.36-.22.41,0,.34,1.41.81,1.88,2.22,2.22.22.05.22.36,0,.41Z"/>
        <path class="cls-11" d="m82.62,73.61c-1.12.27-1.49.64-1.76,1.76-.04.17-.28.17-.33,0-.27-1.12-.64-1.49-1.76-1.76-.17-.04-.17-.28,0-.33,1.12-.27,1.49-.64,1.76-1.76.04-.17.28-.17.33,0,.27,1.12.64,1.49,1.76,1.76.17.04.17.28,0,.33Z"/>
        <path class="cls-11" d="m146.64,62.69c-1.12.27-1.49.64-1.76,1.76-.04.17-.28.17-.33,0-.27-1.12-.64-1.49-1.76-1.76-.17-.04-.17-.28,0-.33,1.12-.27,1.49-.64,1.76-1.76.04-.17.28-.17.33,0,.27,1.12.64,1.49,1.76,1.76.17.04.17.28,0,.33Z"/>
        <path class="cls-11" d="m125.72,202.71c-2.48.6-3.31,1.43-3.91,3.91-.09.38-.63.38-.72,0-.6-2.48-1.43-3.31-3.91-3.91-.38-.09-.38-.63,0-.72,2.48-.6,3.31-1.43,3.91-3.91.09-.38.63-.38.72,0,.6,2.48,1.43,3.31,3.91,3.91.38.09.38.63,0,.72Z"/>
        <path class="cls-11" d="m103.15,183.71c-1.41.34-1.88.81-2.22,2.22-.05.22-.36.22-.41,0-.34-1.41-.81-1.88-2.22-2.22-.22-.05-.22-.36,0-.41,1.41-.34,1.88-.81,2.22-2.22.05-.22.36-.22.41,0,.34,1.41.81,1.88,2.22,2.22.22.05.22.36,0,.41Z"/>
        <path class="cls-11" d="m111.35,60.12c-2.34,1.12-2.98,2.12-3.05,4.71-.01.4-.55.51-.72.15-1.12-2.34-2.12-2.98-4.71-3.05-.4-.01-.51-.55-.15-.72,2.34-1.12,2.98-2.12,3.05-4.71.01-.4.55-.51.72-.15,1.12,2.34,2.12,2.98,4.71,3.05.4.01.51.55.15.72Z"/>
        <path class="cls-11" d="m148.44,40.13c-3.46,1.66-4.41,3.13-4.52,6.97-.02.59-.81.76-1.06.23-1.66-3.46-3.13-4.41-6.97-4.52-.59-.02-.76-.81-.23-1.06,3.46-1.66,4.41-3.13,4.52-6.97.02-.59.81-.76,1.06-.23,1.66,3.46,3.13,4.41,6.97,4.52.59.02.76.81.23,1.06Z"/>
        <path class="cls-11" d="m197.92,72.6c-2.09-.86-3.12-.7-4.84.77-.26.22-.65-.06-.52-.38.86-2.09.7-3.12-.77-4.84-.22-.26.06-.65.38-.52,2.09.86,3.12.7,4.84-.77.26-.22.65.06.52.38-.86,2.09-.7,3.12.77,4.84.22.26-.06.65-.38.52Z"/>
        <path class="cls-11" d="m58,124.12c-1.78-2.22-3-2.67-5.79-2.11-.43.09-.68-.46-.34-.73,2.22-1.78,2.67-3,2.11-5.79-.09-.43.46-.68.73-.34,1.78,2.22,3,2.67,5.79,2.11.43-.09.68.46.34.73-2.22,1.78-2.67,3-2.11,5.79.09.43-.46.68-.73.34Z"/>
        <g>
          <g>
            <rect class="cls-7" x="260.37" y="87.26" width="6.29" height="47.33" rx="2.74" ry="2.74" transform="translate(194.16 -166.45) rotate(53.13)"/>
            <line class="cls-7" x1="279.46" y1="113.32" x2="243.54" y2="140.26"/>
            <line class="cls-7" x1="238.72" y1="143.88" x2="236.61" y2="145.46"/>
          </g>
          <g>
            <rect class="cls-7" x="18.01" y="87.26" width="6.29" height="47.33" rx="2.74" ry="2.74" transform="translate(122.59 160.56) rotate(126.87)"/>
            <line class="cls-7" x1="5.21" y1="113.32" x2="41.13" y2="140.26"/>
            <line class="cls-7" x1="45.95" y1="143.88" x2="48.06" y2="145.46"/>
          </g>
        </g>
      </g>
      <g class="cls-8">
        <line class="cls-1" x1="155.15" y1="113.04" x2="157.5" y2="115.06"/>
        <line class="cls-1" x1="157.34" y1="113.04" x2="155.15" y2="115.06"/>
        <line class="cls-1" x1="159.54" y1="113.04" x2="161.9" y2="115.06"/>
        <line class="cls-1" x1="161.74" y1="113.04" x2="159.54" y2="115.06"/>
      </g>
      <g class="cls-8">
        <line class="cls-1" x1="215.24" y1="90.19" x2="217.22" y2="92.58"/>
        <line class="cls-1" x1="217.4" y1="90.56" x2="214.9" y2="92.19"/>
        <line class="cls-1" x1="219.57" y1="90.92" x2="221.56" y2="93.31"/>
        <line class="cls-1" x1="221.74" y1="91.28" x2="219.24" y2="92.92"/>
      </g>
      <g class="cls-8">
        <line class="cls-1" x1="95.64" y1="88.59" x2="98.27" y2="90.24"/>
        <line class="cls-1" x1="97.81" y1="88.26" x2="95.94" y2="90.59"/>
        <line class="cls-1" x1="99.99" y1="87.93" x2="102.62" y2="89.58"/>
        <line class="cls-1" x1="102.15" y1="87.6" x2="100.29" y2="89.94"/>
      </g>
    </g>
  </g>
</svg>