<svg xmlns="http://www.w3.org/2000/svg" width="128" height="128" viewBox="0 0 128 128">
<path d="M0 0 C42.24 0 84.48 0 128 0 C128 42.24 128 84.48 128 128 C85.76 128 43.52 128 0 128 C0 85.76 0 43.52 0 0 Z " fill="#BDC7C7"/>
<path d="M43 17 C47.62 17 52.24 17 57 17 C57 21.62 57 26.24 57 31 C61.62 31 66.24 31 71 31 C71 26.38 71 21.76 71 17 C75.62 17 80.24 17 85 17 C85 19.31 85 21.62 85 24 C87.31 24 89.62 24 92 24 C92 26.31 92 28.62 92 31 C94.64 31 97.28 31 100 31 C100 40.57 100 50.14 100 60 C102.31 60 104.62 60 107 60 C107 62.31 107 64.62 107 67 C104.69 67 102.38 67 100 67 C100 69.31 100 71.62 100 74 C102.31 74 104.62 74 107 74 C107 76.31 107 78.62 107 81 C104.69 81 102.38 81 100 81 C100 85.95 100 90.9 100 96 C97.36 96 94.72 96 92 96 C92 98.31 92 100.62 92 103 C87.38 103 82.76 103 78 103 C78 98.05 78 93.1 78 88 C75.69 88 73.38 88 71 88 C71 90.64 71 93.28 71 96 C66.38 96 61.76 96 57 96 C57 93.36 57 90.72 57 88 C54.69 88 52.38 88 50 88 C50 92.95 50 97.9 50 103 C45.38 103 40.76 103 36 103 C36 100.69 36 98.38 36 96 C33.36 96 30.72 96 28 96 C28 91.05 28 86.1 28 81 C25.69 81 23.38 81 21 81 C21 78.69 21 76.38 21 74 C23.31 74 25.62 74 28 74 C28 71.69 28 69.38 28 67 C25.69 67 23.38 67 21 67 C21 64.69 21 62.38 21 60 C23.31 60 25.62 60 28 60 C28 50.43 28 40.86 28 31 C30.64 31 33.28 31 36 31 C36 28.69 36 26.38 36 24 C38.31 24 40.62 24 43 24 C43 21.69 43 19.38 43 17 Z " fill="#66534D"/>
<path d="M43 48 C45.31 48 47.62 48 50 48 C50 52.95 50 57.9 50 63 C59.24 63 68.48 63 78 63 C78 58.05 78 53.1 78 48 C80.31 48 82.62 48 85 48 C85 52.95 85 57.9 85 63 C87.31 63 89.62 63 92 63 C92 76.86 92 90.72 92 105 C85.07 105 78.14 105 71 105 C71 107.64 71 110.28 71 113 C66.38 113 61.76 113 57 113 C57 110.36 57 107.72 57 105 C50.07 105 43.14 105 36 105 C36 91.14 36 77.28 36 63 C38.31 63 40.62 63 43 63 C43 58.05 43 53.1 43 48 Z " fill="#D7742F"/>
</svg>
